<svg width="249" height="81" viewBox="0 0 249 81" fill="none" xmlns="http://www.w3.org/2000/svg">
<path d="M168.419 67.0082L140.853 67.2969L140.72 54.6034L168.286 54.3148C171.841 54.2775 177.799 53.5372 177.751 48.9976L177.719 45.9366L140.909 46.3221L140.773 33.312C140.669 23.394 147.333 12.782 159.887 12.6505L190.209 12.333L190.342 25.0264L160.02 25.344C153.571 25.4115 153.458 32.3844 153.466 33.179L153.47 33.4957L190.279 33.1102L190.444 48.8647C190.514 55.5171 185.954 66.8246 168.419 67.0082Z" fill="#656263"/>
<path d="M211.269 48.6615L211.271 48.7991C211.272 48.7829 211.273 48.7362 211.269 48.6615ZM223.445 66.5306C214.88 66.6203 208.278 64.4932 203.821 60.2088C198.866 55.4445 198.589 49.7927 198.577 48.8673L198.193 12.2113L210.886 12.0784L211.269 48.6484C211.361 49.6845 212.384 54.3266 223.316 54.2121C234.145 54.0987 235.499 49.7366 235.666 48.7797L235.674 49.026L235.667 48.7694C235.669 48.761 235.67 48.7526 235.672 48.7445L235.285 11.8229L247.978 11.6899L248.367 49.0435C248.28 55.0024 242.959 66.3262 223.445 66.5306Z" fill="#656263"/>
<path d="M72.0467 67.985L85.9687 67.8601L85.6153 34.1219L71.6936 34.2677L72.0467 67.985Z" fill="#656263"/>
<path d="M131.147 33.6325C131.058 30.6574 130.43 27.9913 129.385 25.6438C125.702 17.3668 116.88 13.0481 108.504 13.1359L71.4762 13.5236L71.6095 26.2488L108.637 25.8611C109.489 25.8521 116.821 27.117 117.222 33.7783C117.231 33.9327 117.591 67.5055 117.591 67.5055L131.513 67.3597C131.513 67.3597 131.152 33.7894 131.147 33.6325Z" fill="#656263"/>
<path d="M94.4638 34.0266L94.471 34.7154L94.817 67.7539L108.739 67.5981L108.386 33.8808L94.4638 34.0266Z" fill="#656263"/>
<path d="M6.08287 53.1069L22.4474 56.5048L32.9034 44.7872L16.5168 41.3849L6.08287 53.1069Z" fill="#656263"/>
<path d="M37.9571 17.2909L32.9802 2.31857L1.11963 38.1858L16.5137 41.3821L37.9571 17.2909Z" fill="#7B7979"/>
<path d="M1.11961 38.1836L6.07881 53.1021L6.07974 53.102L16.5136 41.38L1.11961 38.1836Z" fill="#7B7979"/>
<path d="M43.8349 41.3176L22.3911 65.4089L27.368 80.3812L59.2289 44.514L43.8349 41.3176Z" fill="#7B7979"/>
<path d="M52.6406 29.238L42.1846 40.9556L43.8369 41.3187L54.2704 29.5967L52.6406 29.238Z" fill="#4F4C4D"/>
<path d="M54.2724 29.5991L54.2714 29.5992L37.9069 26.201L27.4509 37.9186L43.8375 41.3212L59.2316 44.5176L54.2724 29.5991Z" fill="#656263"/>
<path d="M6.08274 53.0999L8.33871 53.5682L18.7947 41.8506L16.5166 41.3778L6.08274 53.0999Z" fill="#4F4C4D"/>
</svg>
