<svg width="250" height="82" viewBox="0 0 250 82" fill="none" xmlns="http://www.w3.org/2000/svg">
<path d="M96.6258 68.3389L69.1158 68.627L68.9832 55.9597L96.4931 55.6716C100.041 55.6345 105.986 54.8956 105.939 50.3655L105.907 47.3108L69.172 47.6955L69.036 34.7122C68.9324 24.8147 75.5827 14.2246 88.1114 14.0934L118.372 13.7765L118.505 26.4437L88.2441 26.7606C81.8077 26.828 81.6951 33.7865 81.7034 34.5795L81.7067 34.8956L118.442 34.5109L118.606 50.2328C118.676 56.8714 114.125 68.1556 96.6258 68.3389Z" fill="#656263"/>
<path d="M6.18241 53.6743L6.18303 53.6743L1.22387 38.7569L6.18241 53.6743Z" fill="white"/>
<path d="M6.18419 53.6794L22.5487 57.0771L33.0046 45.36L16.618 41.9578L6.18419 53.6794Z" fill="#656263"/>
<path d="M38.0611 17.8642L33.0843 2.8925L1.22388 38.7582L16.6178 41.9544L38.0611 17.8642Z" fill="#7B7979"/>
<path d="M1.22386 38.7585L6.18303 53.6763L6.18396 53.6763L16.6178 41.9547L1.22386 38.7585Z" fill="#7B7979"/>
<path d="M43.9415 41.8935L22.4978 65.9837L27.4747 80.9554L59.3354 45.0897L43.9415 41.8935Z" fill="#7B7979"/>
<path d="M52.7423 29.8166L42.2863 41.5337L43.9385 41.8968L54.3721 30.1753L52.7423 29.8166Z" fill="#4F4C4D"/>
<path d="M54.3735 30.1721L54.3726 30.1721L38.0081 26.774L27.5522 38.4911L43.9388 41.8936L59.3327 45.0898L54.3735 30.1721Z" fill="#656263"/>
<path d="M6.18418 53.678L8.44013 54.1464L18.8961 42.4293L16.618 41.9565L6.18418 53.678Z" fill="#4F4C4D"/>
<path d="M59.3075 45.1003L57.774 46.8198L42.3969 43.6315L43.9454 41.8954L59.3075 45.1003Z" fill="#4F4C4D"/>
<path d="M129.656 34.3559L130.009 67.9902L179.078 67.4764L178.944 54.7203L142.419 55.1028L142.336 47.1291L178.861 46.7466L178.726 33.842L129.656 34.3559Z" fill="#656263"/>
<path d="M129.571 26.209L178.64 25.6951L178.509 13.1509L129.44 13.6648L129.571 26.209Z" fill="#656263"/>
<path d="M189.557 67.3704L203.45 67.2588L203.098 33.5905L189.204 33.736L189.557 67.3704Z" fill="#656263"/>
<path d="M248.538 33.1057C248.449 30.1368 247.822 27.4762 246.78 25.1335C243.104 16.8736 234.3 12.5638 225.94 12.6514L188.988 13.0384L189.121 25.7373L226.073 25.3503C226.923 25.3414 234.24 26.6037 234.641 33.2513C234.65 33.4053 235.009 66.9088 235.009 66.9088L248.903 66.7633C248.903 66.7633 248.543 33.2623 248.538 33.1057Z" fill="#656263"/>
<path d="M211.932 33.4947L212.284 67.1523L226.178 66.9835L225.826 33.3492L211.932 33.4947Z" fill="#656263"/>
</svg>
