<svg width="240" height="81" viewBox="0 0 240 81" fill="none" xmlns="http://www.w3.org/2000/svg">
<path d="M98.2614 67.7767L70.7825 68.0645L70.65 55.4114L98.1289 55.1237C101.673 55.0865 107.612 54.3483 107.564 49.8236L107.532 46.772L70.8385 47.1563L70.7027 34.1875C70.5991 24.3011 77.2418 13.7231 89.7566 13.5921L119.983 13.2755L120.115 25.9286L89.8891 26.2451C83.46 26.3124 83.3475 33.2629 83.3557 34.055L83.3591 34.3708L120.053 33.9865L120.217 49.6911C120.287 56.3219 115.741 67.5936 98.2614 67.7767Z" fill="#656263"/>
<path d="M142.941 49.4378L142.942 49.5751C142.944 49.5589 142.945 49.5122 142.941 49.4378ZM155.079 67.2502C146.54 67.3396 139.959 65.2192 135.517 60.9483C130.577 56.1992 130.3 50.5655 130.289 49.6429L129.906 13.1037L142.559 12.9712L142.941 49.4247C143.032 50.4574 144.052 55.0849 154.95 54.9708C165.745 54.8577 167.095 50.5093 167.261 49.5556L167.269 49.8012L167.262 49.5453C167.264 49.5369 167.265 49.5284 167.266 49.5206L166.881 12.7165L179.534 12.584L179.922 49.8188C179.835 55.7584 174.53 67.0465 155.079 67.2502Z" fill="#656263"/>
<path d="M217.151 66.5325L189.672 66.8203L189.54 54.1673L217.019 53.8795C220.563 53.8424 226.501 53.1041 226.454 48.5794L226.422 45.5279L189.728 45.9122L189.593 32.9434C189.489 23.057 196.132 12.479 208.646 12.3479L238.873 12.0314L239.005 24.6844L208.779 25.001C202.35 25.0683 202.237 32.0187 202.246 32.8109L202.249 33.1266L238.943 32.7423L239.107 48.4469C239.177 55.0778 234.631 66.3495 217.151 66.5325Z" fill="#656263"/>
<path d="M4.82237 53.4489L21.1868 56.8466L31.6428 45.1295L15.2562 41.7274L4.82237 53.4489Z" fill="#656263"/>
<path d="M36.6964 17.6357L31.7195 2.664L-0.140869 38.5297L15.2531 41.7259L36.6964 17.6357Z" fill="#7B7979"/>
<path d="M-0.140882 38.528L4.81828 53.4458L4.81921 53.4458L15.253 41.7243L-0.140882 38.528Z" fill="#7B7979"/>
<path d="M42.5735 41.665L21.1299 65.7552L26.1067 80.7269L57.9675 44.8612L42.5735 41.665Z" fill="#7B7979"/>
<path d="M53.0108 29.9416L53.0099 29.9416L36.6454 26.5436L26.1895 38.2607L42.5761 41.6631L57.97 44.8593L53.0108 29.9416Z" fill="#656263"/>
<path d="M57.9443 44.8718L56.4108 46.5913L41.0338 43.403L42.5823 41.6669L57.9443 44.8718Z" fill="#4F4C4D"/>
</svg>
