<svg width="354" height="82" viewBox="0 0 354 82" fill="none" xmlns="http://www.w3.org/2000/svg">
<path d="M260.533 3.74263C256.839 2.08556 251.439 1.29736 244.361 1.37148L218.023 1.64819L215.964 8.17196L216.431 8.16708L221.939 8.17458C225.004 8.17954 227.117 9.05262 228.515 10.0118C229.488 10.6816 229.678 11.4315 229.466 12.2941C228.926 14.4933 227.801 16.8264 226.994 19.1151C226.698 19.9473 226.066 20.7371 224.69 21.4315C222.714 22.4264 220.165 23.2354 216.991 23.4199L215.157 23.4392L198.97 23.6087C191.888 23.6828 185.996 24.6741 181.299 26.4222C176.602 28.1663 174.089 30.3643 173.044 33.2707C172.758 34.0618 169.864 42.7374 168.576 46.5921C168.204 47.7108 168.43 50.5392 171.853 50.5033L248.623 49.6771C250.912 49.6531 253.054 48.6747 253.382 47.5028L254.015 45.2414C254.343 44.0722 252.73 43.1327 250.442 43.1585L204.318 43.654C205.128 41.3792 206.666 37.0491 207.298 35.0984C207.448 34.6339 209.082 29.8692 219.599 29.7591L235.596 29.5916C242.68 29.5174 248.571 28.6141 253.269 26.8655C257.965 25.1215 260.88 22.8308 261.527 20.0174C262.14 17.3406 263.755 13.4205 264.742 10.6624C265.747 7.84439 264.226 5.40195 260.533 3.74263ZM209.587 1.73966L82.9628 3.06572C80.677 3.08965 78.5342 4.09079 78.2062 5.26269L77.5745 7.52363C77.2456 8.6933 78.8536 9.61006 81.1415 9.58477L131.119 9.06138L118.254 48.4786C117.795 49.8769 120.288 50.9875 123.798 50.9637L146.076 50.7304C149.594 50.6806 152.836 49.5099 153.292 48.1117L166.162 8.6944L207.529 8.26119L209.587 1.73966Z" fill="#1266AC"/>
<path d="M26.6642 70.4875C26.6642 70.4875 22.3146 70.5313 22.1142 70.5334C20.2874 70.5503 19.0285 71.3332 18.6494 71.5403C18.0718 71.8562 16.9092 72.4953 15.5135 73.2604C14.7324 72.5158 14.083 71.8958 13.7578 71.5893C13.5481 71.3866 12.9133 70.6253 11.0879 70.6444C10.8883 70.6447 6.53694 70.6885 6.53694 70.6885C5.70346 70.6972 5.00179 71.3122 5.22453 71.5202C5.22453 71.5202 7.65278 73.7673 10.194 76.1834C9.90896 76.3391 9.62886 76.4938 9.35804 76.6404L1.19015 81.2385C0.949312 81.5616 1.43644 81.8195 2.26947 81.8107L7.49761 81.7591C8.32975 81.7504 8.90196 81.4783 9.45088 81.1565C10.3805 80.6109 11.6832 79.8731 13.1627 79.0468C13.9788 79.8509 14.6908 80.5689 15.1817 81.1005C15.4725 81.4135 15.8253 81.6759 16.6579 81.6681L21.8869 81.6147C22.7213 81.6077 23.4194 81.3392 23.4424 81.0162L18.9594 76.5452C18.8083 76.4026 18.6523 76.2511 18.4922 76.101C23.0269 73.6135 27.3085 71.3001 27.3085 71.3001C27.7036 71.0848 27.4986 70.4815 26.6642 70.4875Z" fill="#7B7C7F"/>
<path d="M162.62 68.913L157.467 68.9669C156.646 68.9755 155.887 69.2505 155.783 69.5748L154.408 73.8562L146.275 73.9413L147.651 69.6599L147.66 69.5438C147.636 69.4324 147.527 69.3317 147.356 69.2541L147.346 69.2475L147.315 69.2371C147.079 69.1391 146.741 69.0792 146.345 69.0834L141.192 69.1373C140.378 69.1459 139.625 69.4181 139.513 69.7394L136.267 79.8365L136.259 79.9424C136.298 80.2161 136.84 80.4217 137.572 80.414L142.723 80.36C143.545 80.3514 144.305 80.0774 144.408 79.7513L145.783 75.4734L145.786 75.4734L145.786 75.4712L153.916 75.3861L153.914 75.3883L153.916 75.3883L152.541 79.6661L152.532 79.7863C152.555 79.8963 152.665 79.9961 152.835 80.0738L152.846 80.0808L152.889 80.0946C153.125 80.189 153.46 80.2476 153.847 80.2436L158.998 80.1896C159.814 80.1811 160.565 79.9116 160.679 79.5876L163.925 69.4895L163.933 69.3734C163.879 69.1038 163.338 68.9054 162.62 68.913ZM94.4688 79.154L87.2862 79.2293L89.263 73.5758C89.263 73.5758 90.0035 71.0896 93.2486 71.0557L97.2467 71.0062L94.4688 79.154ZM103.77 69.4614L88.855 69.6176C83.2135 69.6767 82.4697 72.7982 82.4697 72.7982L80.2054 79.3422L78.2345 79.3629C77.8973 79.3986 77.3721 79.5577 77.1503 80.2038L77.095 80.4227C76.9505 80.989 78.383 81.0173 78.383 81.0173L102.394 80.7659C102.87 80.7484 103.247 80.6654 103.534 80.5521C103.948 80.4094 104.076 80.0888 104.116 79.9214C104.191 79.3665 103.906 79.124 103.512 79.0982L101.544 79.1188L104.498 70.3699C104.498 70.3699 104.851 69.442 103.77 69.4614ZM183.6 68.6932C183.6 68.6932 175.539 68.7803 168.737 68.8516L168.737 68.8525C167.812 68.8622 167.437 69.4603 167.328 69.6883L164.212 79.5439C164.109 79.87 164.694 80.13 165.517 80.1213L170.669 80.0674C171.492 80.0588 172.249 79.7847 172.355 79.4586L175.294 70.3072L183.186 70.2227C183.717 70.2172 184.168 69.9865 184.242 69.713L184.406 69.1826C184.479 68.9091 184.133 68.6877 183.6 68.6932ZM134.185 69.2107L129.697 69.2577C127.899 69.2766 126.973 70.0667 126.684 70.2764C124.99 71.5073 116.816 77.4498 116.816 77.4498L119.223 69.9603C119.326 69.6333 118.74 69.3725 117.915 69.3811L112.768 69.435C111.946 69.4436 111.186 69.7186 111.082 70.0429L107.838 80.1342C107.734 80.4604 108.322 80.7203 109.144 80.7117L113.638 80.6646C115.434 80.6458 116.362 79.8592 116.652 79.6504C118.482 78.3181 126.519 72.4731 126.519 72.4731L124.112 79.9638C124.008 80.2899 124.596 80.5499 125.416 80.5413L130.571 80.4873C131.394 80.4787 132.153 80.2046 132.257 79.8785L135.491 69.7873C135.595 69.463 135.007 69.2021 134.185 69.2107ZM42.1054 74.6032L41.1339 77.6324C40.8986 78.1912 39.9446 79.9527 37.2125 79.9813L33.226 80.0311L34.2352 76.8506L34.796 75.1052L35.1363 74.0493C35.3632 73.5004 36.3111 71.7185 39.0593 71.6897L43.0472 71.6421L42.1054 74.6032ZM49.1116 70.1016L34.7492 70.2521C34.7408 70.2588 34.735 70.2634 34.7266 70.2688C29.4755 70.385 28.4023 73.1746 28.4023 73.1746L25.8558 80.9928C25.7534 81.3189 26.3392 81.5789 27.1611 81.5702L42.0923 81.4139C46.8907 81.1315 47.903 78.5371 47.903 78.5371L50.4169 70.6782C50.5198 70.3539 49.934 70.093 49.1116 70.1016ZM77.3864 70.265C77.3341 69.9981 76.7931 69.7988 76.073 69.8064L56.7552 70.0087C55.9418 70.0172 55.1892 70.2889 55.0761 70.6102L52.4662 78.7313C52.4649 78.7344 52.4618 78.7354 52.4618 78.7398C52.2454 79.4734 51.9706 79.6232 51.4926 79.642L51.4908 79.6465L51.1859 79.6497C51.1757 79.6507 51.165 79.6508 51.1529 79.6514L51.1529 79.6501L50.8047 79.6537C50.4994 79.6672 49.8729 79.7434 49.6785 80.1441C49.5748 80.4738 49.4772 80.7905 49.4772 80.7905C49.4772 80.7905 49.4493 81.2864 50.2738 81.3162L58.2876 81.2322C59.1095 81.2236 59.8683 80.9496 59.9729 80.6225L62.9105 71.6029L68.9328 71.5398L65.9944 80.5595L65.9862 80.6783C66.0088 80.7902 66.1193 80.8899 66.2888 80.9654L66.2992 80.9738L66.3431 80.9867C66.5785 81.0833 66.913 81.1419 67.3005 81.1378L72.4532 81.0839C73.2679 81.0753 74.0196 80.8045 74.1328 80.4819L77.3792 70.3829L77.3864 70.265Z" fill="#7B7C7F"/>
<path fill-rule="evenodd" clip-rule="evenodd" d="M281.678 67.675C275.996 67.7345 275.248 70.8712 275.248 70.8712L272.805 78.4807C272.7 78.8081 273.291 79.0721 274.12 79.0634L279.311 79.009C280.137 79.0004 280.902 78.7222 281.009 78.3947L282.376 74.0884L290.583 74.0025L289.197 78.309C289.09 78.6365 289.684 78.9004 290.512 78.8917L295.703 78.8374C296.532 78.8287 297.297 78.5505 297.401 78.2231L300.861 67.4741L281.678 67.675ZM291.078 72.4605L282.865 72.5465L283.154 71.6448C283.154 71.6448 283.899 69.1411 287.166 69.1069L292.175 69.0473L291.078 72.4605ZM327.949 67.1904L322.761 67.2447C321.932 67.2534 321.168 67.5284 321.063 67.8568L319.678 72.161L319.675 72.1611L311.488 72.2468L312.871 67.9426L312.88 67.821C312.856 67.7088 312.747 67.609 312.574 67.5327L312.565 67.5243L312.532 67.513C312.295 67.4173 311.953 67.3579 311.557 67.3621L306.366 67.4164C305.543 67.425 304.786 67.6946 304.672 68.0208L301.407 78.1811L301.397 78.2862C301.437 78.563 301.985 78.7716 302.719 78.7639L307.909 78.7095C308.736 78.7009 309.5 78.4227 309.607 78.0953L310.993 73.7888L310.995 73.7874L319.18 73.7017L319.179 73.703L319.18 73.703L317.798 78.0095L317.791 78.1283C317.812 78.2402 317.922 78.3408 318.093 78.4194L318.103 78.426L318.147 78.4407C318.386 78.5386 318.719 78.5963 319.113 78.5922L324.3 78.5379C325.124 78.5292 325.882 78.2561 325.995 77.933L329.263 67.7709L329.274 67.6493C329.218 67.3829 328.674 67.1828 327.949 67.1904ZM246.776 68.0405L242.257 68.0878C240.444 68.1068 239.513 68.8996 239.22 69.1094C237.513 70.3471 229.281 76.3299 229.281 76.3299L231.703 68.7926C231.807 68.4642 231.217 68.2034 230.388 68.2121L225.204 68.2664C224.372 68.2751 223.607 68.5501 223.504 68.8784L220.235 79.0312C220.131 79.3587 220.722 79.6226 221.552 79.6139L226.077 79.5665C227.89 79.5475 228.822 78.7524 229.115 78.5413C230.957 77.2035 239.053 71.3212 239.053 71.3212L236.629 78.8595C236.524 79.187 237.116 79.4509 237.943 79.4422L243.135 79.3879C243.964 79.3792 244.729 79.101 244.833 78.7736L248.093 68.6209C248.195 68.2926 247.604 68.0318 246.776 68.0405ZM275.357 68.7734L275.522 68.239C275.596 67.9641 275.248 67.7423 274.711 67.7479C274.711 67.7479 250.503 68.0032 250.418 68.0041C249.882 68.0097 249.43 68.2395 249.355 68.5171L249.193 69.0492C249.118 69.3241 249.466 69.5464 250.003 69.5408L258.145 69.4555L255.183 78.6652C255.077 78.9927 255.668 79.2566 256.499 79.2479L261.688 79.1936C262.514 79.1849 263.279 78.9068 263.384 78.5793L266.345 69.3696L274.297 69.2855C274.832 69.2799 275.281 69.0461 275.357 68.7734ZM222.318 69.3288L222.482 68.7945C222.555 68.5196 222.206 68.2978 221.67 68.3034C221.67 68.3034 197.462 68.5587 197.377 68.5596C196.841 68.5652 196.387 68.795 196.315 69.0725L196.149 69.6047C196.074 69.8796 196.423 70.1019 196.961 70.0962L205.102 70.011L202.139 79.2207C202.037 79.5481 202.627 79.8121 203.457 79.8034L208.647 79.749C209.47 79.7404 210.237 79.4623 210.344 79.1348L213.305 69.9251L221.254 69.8409C221.788 69.8353 222.24 69.6016 222.318 69.3288ZM352.358 67.5331C351.488 67.1412 350.222 66.9571 348.561 66.9745L334.942 67.1172C334.408 67.1227 334.098 67.3555 334.023 67.6344L333.846 68.168C333.772 68.4425 333.988 68.6612 334.524 68.6556L343.181 68.565L343.329 68.5791C344.041 68.5814 344.539 68.7887 344.87 69.0147C345.096 69.1736 345.142 69.3517 345.092 69.5509C344.966 70.071 344.708 70.6206 344.525 71.1632C344.457 71.3617 344.308 71.5472 343.986 71.7113C343.528 71.9456 342.932 72.1367 342.188 72.1793L341.76 72.2044L337.971 72.244C336.313 72.2614 334.934 72.4776 333.836 72.8887C332.74 73.2994 332.011 73.8405 331.863 74.5056L330.772 77.9696C330.699 78.2432 331.074 78.4669 331.61 78.4613L349.864 78.2702C350.394 78.2646 350.709 78.03 350.784 77.7511L350.956 77.2193C351.032 76.9413 350.815 76.723 350.28 76.7286L339.275 76.8438L339.917 74.7199C339.956 74.5204 340.211 74.3364 340.535 74.1736C340.997 73.9349 341.592 73.7465 342.334 73.7034L342.762 73.6762L346.551 73.6365C348.212 73.6191 349.587 73.4073 350.684 72.9954C351.784 72.5825 352.462 72.0414 352.609 71.3795L353.328 69.1664C353.561 68.5014 353.222 67.9258 352.358 67.5331Z" fill="#7B7C7F"/>
</svg>
