<svg width="81" height="80" viewBox="0 0 81 80" fill="none" xmlns="http://www.w3.org/2000/svg">
<path d="M79.6304 39.574C79.856 61.1109 62.5814 78.7547 41.0426 78.9803C19.506 79.2058 1.86353 61.9277 1.63799 40.3908C1.41242 18.8518 18.6892 1.21011 40.2258 0.984567C61.7646 0.759005 79.4049 18.035 79.6304 39.574Z" fill="#1575C5"/>
<path d="M73.1669 39.6412C73.3754 59.5462 57.4081 75.8516 37.5035 76.0601C17.5994 76.2685 1.29415 60.301 1.0857 40.3961C0.877239 20.4907 16.8445 4.18573 36.7486 3.97729C56.6532 3.76884 72.9585 19.7358 73.1669 39.6412Z" fill="white"/>
<path d="M63.8876 39.738C64.0424 54.5182 52.1873 66.6255 37.4063 66.7803C22.6258 66.9351 10.5176 55.0788 10.3628 40.2986C10.208 25.5178 22.0652 13.4111 36.8457 13.2563C51.6268 13.1015 63.7328 24.9573 63.8876 39.738Z" fill="#1266AC"/>
<path d="M64.5552 39.7312C64.653 49.0683 57.1637 56.7173 47.8256 56.8151C38.4886 56.9129 30.8397 49.4224 30.7419 40.0853C30.6441 30.7481 38.1345 23.0991 47.4715 23.0013C56.8096 22.9036 64.4574 30.394 64.5552 39.7312Z" fill="white"/>
<path d="M43.6802 38.7554L43.5937 30.4919L40.8392 30.5207L40.8189 28.5835L48.6586 28.5014L48.6788 30.4386L45.8941 30.4678L45.9806 38.7313L43.6802 38.7554Z" fill="#1266AC"/>
<path d="M49.989 38.6893L49.8836 28.6248C50.5937 28.4963 51.5916 28.395 52.9991 28.3802C54.4217 28.3654 55.4386 28.6272 56.1254 29.1649C56.7967 29.6725 57.2293 30.5156 57.2398 31.5145C57.2502 32.5134 56.9414 33.3794 56.3268 33.9458C55.5474 34.6805 54.3857 35.0408 53.0236 35.0551C52.7209 35.0583 52.4483 35.046 52.236 35.0028L52.2743 38.6654L49.989 38.6893ZM52.1859 30.2203L52.2174 33.2321C52.4146 33.2754 52.6418 33.2882 52.9899 33.2845C54.2158 33.2717 54.966 32.6432 54.9552 31.6141C54.9454 30.6757 54.2888 30.1226 53.1234 30.1348C52.6694 30.1395 52.3519 30.1731 52.1859 30.2203Z" fill="#1266AC"/>
<path d="M58.7981 38.5971L58.6913 28.3963L60.9917 28.3722L61.0782 36.6358L65.1343 36.5933L65.1546 38.5305L58.7981 38.5971Z" fill="#1266AC"/>
</svg>
