<svg width="292" height="82" viewBox="0 0 292 82" fill="none" xmlns="http://www.w3.org/2000/svg">
<path d="M82.9335 18.9005L84.8 14.8971L80.57 5.72291L82.9335 18.9005Z" fill="#231F20"/>
<path d="M98.7431 47.5065L101.071 17.8395L94.5468 32.8501L98.7431 47.5065Z" fill="#231F20"/>
<path d="M72.6886 25.726L79.0391 3.68666L61.776 3.86745L72.6886 25.726Z" fill="#231F20"/>
<path d="M85.8031 17.0632L88.3726 48.2929L93.5341 33.83L85.8031 17.0632Z" fill="#231F20"/>
<path d="M79.5012 6.17077L73.4353 27.2213L76.3405 33.0405L82.1035 20.6804L79.5012 6.17077Z" fill="#231F20"/>
<path d="M70.9248 44.6449L69.7462 40.0086L64.342 58.7637L70.9248 44.6449Z" fill="#231F20"/>
<path d="M72.9713 28.8239L70.3696 37.8531L71.6838 43.022L75.7284 34.3468L72.9713 28.8239Z" fill="#231F20"/>
<path d="M86.4116 38.2972L84.7202 17.7415L83.2792 20.8323L86.4116 38.2972Z" fill="#231F20"/>
<path d="M115.105 26.4965L117.46 34.0992L123.953 8.34818L115.105 26.4965Z" fill="#231F20"/>
<path d="M111.432 34.0265L115.472 41.9781L116.927 36.2072L114.379 27.9814L111.432 34.0265Z" fill="#231F20"/>
<path d="M103.652 21.2167L102.169 18.2989L100.554 38.8848L103.652 21.2167Z" fill="#231F20"/>
<path d="M114.616 24.9266L125.205 3.20731L107.945 3.38806L114.616 24.9266Z" fill="#231F20"/>
<path d="M103.977 19.3631L106.388 5.60756L102.055 15.5796L103.977 19.3631Z" fill="#231F20"/>
<path d="M110.788 32.7651L113.889 26.4056L107.505 5.79409L104.832 21.041L110.788 32.7651Z" fill="#231F20"/>
<path d="M117.573 38.2885L116.254 43.5169L123.78 58.3291L117.573 38.2885Z" fill="#231F20"/>
<path d="M118.104 36.1893L126.465 63.183L125.86 5.42693L118.104 36.1893Z" fill="#231F20"/>
<path d="M115.831 45.1909L110.819 65.0684L125.85 64.911L115.831 45.1909Z" fill="#231F20"/>
<path d="M110.169 34.0417L104.508 22.9004L99.8357 49.5527L109.479 35.458L110.169 34.0417Z" fill="#231F20"/>
<path d="M72.1261 44.7647L76.7702 63.0315L76.4811 35.4245L72.1261 44.7647Z" fill="#231F20"/>
<path d="M71.3684 46.3829L62.4197 65.5762L76.2112 65.4317L71.3684 46.3829Z" fill="#231F20"/>
<path d="M69.1963 37.8402L61.1703 6.27132L61.7708 63.6094L69.1963 37.8402Z" fill="#231F20"/>
<path d="M82.4493 22.6098L76.7153 34.9074L87.312 49.7207L82.4493 22.6098Z" fill="#231F20"/>
<path d="M72.2216 27.3306L62.9899 8.83943L69.8148 35.6834L72.2216 27.3306Z" fill="#231F20"/>
<path d="M94.1306 35.5175L88.6814 50.7871L98.4732 50.6846L94.1306 35.5175Z" fill="#231F20"/>
<path d="M110.812 35.3117L110.351 36.257L110.613 61.2656L115.052 43.6578L110.812 35.3117Z" fill="#231F20"/>
<path d="M21.6357 49.415L3.76599 8.73425L32.9805 43.4593L29.7553 65.4715L14.9885 65.6261L21.6357 49.415ZM28.6927 32.2041L37.9308 9.67326L33.2438 41.662L2.6901 5.34501L16.9519 5.19566L28.6927 32.2041ZM37.0837 48.3365L31.724 61.4078L34.1502 44.8496L37.0837 48.3365ZM34.4136 43.0523L39.9954 4.95434L54.9354 4.79788L37.6654 46.9176L34.4136 43.0523ZM38.9497 3.60645L28.6561 28.7118L17.8387 3.82753L0.207874 4.01217L20.1598 49.4332L12.9544 67.0062L30.9745 66.8175L56.9696 3.41774L38.9497 3.60645Z" fill="#231F20"/>
<path d="M170.531 63.7885L183.122 8.35242L183.701 63.6506L170.531 63.7885ZM148.492 45.6611L167.422 24.2291L152.064 61.6859L148.492 45.6611ZM134.785 64.1629L147.274 47.2721L147.276 47.4177L147.42 47.1007L151.162 63.8851L151.118 63.9918L134.785 64.1629ZM147.216 41.7293L133.739 3.76417L146.817 3.62721L147.216 41.7293ZM146.98 45.125L147.024 45.3248L134.085 62.8238L133.502 7.15946L146.98 45.125ZM167.322 3.41248L182.888 3.24947L170.297 58.6856L169.907 21.4161L169.98 21.3336L169.905 21.2676L169.873 18.2504L168.974 20.4448L168.961 20.4339L149.565 42.3939L167.322 3.41248ZM166.444 2.06284L148.571 41.2977L148.162 2.25429L132.094 2.42256L132.755 65.543L152.034 65.3411L152.34 64.5928L152.694 64.5139L152.581 64.0057L168.585 24.9738L169.006 65.1633L185.074 64.9951L184.413 1.87466L166.444 2.06284Z" fill="#231F20"/>
<path d="M204.281 63.4362L191.982 63.565L207.224 50.8441L204.281 63.4362ZM207.578 2.99207L228.216 2.77595L230.045 33.4619L226.129 36.1225L218.103 9.25392L210.43 37.0483L191.637 61.1653L207.578 2.99207ZM231.353 32.5735L229.882 7.8922L236.266 29.2364L231.353 32.5735ZM232.447 50.914L231.447 34.152L236.675 30.6014L245.993 61.754L232.447 50.914ZM232.556 52.7411L245.357 62.9846L233.174 63.1121L232.556 52.7411ZM231.127 51.5975L231.43 56.6899L229.884 50.6036L231.127 51.5975ZM225.326 38.3101L227.854 48.1375L210.592 48.3183L225.326 38.3101ZM211.944 36.6706L218.154 14.174L224.834 36.5356L211.944 36.6706ZM229.33 48.4198L229.255 48.1228L229.253 48.1228L226.617 37.8758L226.652 37.8754L226.536 37.4877L230.14 35.0403L231.018 49.7703L229.33 48.4198ZM211.384 38.0353L223.499 37.9084L208.136 48.344L207.807 48.3474L207.738 48.6453L194.519 59.6773L211.384 38.0353ZM229.36 1.40513L206.539 1.64411L189.19 64.9531L205.361 64.7838L208.888 49.6949L228.201 49.4927L232.008 64.4832L248.177 64.3139L229.36 1.40513Z" fill="#231F20"/>
<path d="M275.181 15.1874L288.985 2.95099L289.112 15.0416L275.181 15.1874ZM258.97 62.8651L272.987 19.5891L273.438 62.7136L258.97 62.8651ZM246.07 15.4923L279.162 5.37228L257.383 15.3738L246.07 15.4923ZM284.943 2.18346L242.034 15.3056L241.901 2.63421L284.943 2.18346ZM258.219 16.4852L286.127 3.66942L273.108 15.2092L272.942 15.3182L258.668 59.3871L258.219 16.4852ZM240.528 1.28975L240.691 16.9075L256.863 16.7381L257.36 64.2408L274.811 64.0581L274.314 16.5554L290.485 16.386L290.321 0.768293L240.528 1.28975Z" fill="#231F20"/>
<path d="M17.62 78.3313L16.5282 80.3479L16.1306 80.3521L17.1538 78.5128C16.2201 77.0917 15.3651 75.5726 14.995 73.9688L15.3571 73.965C15.6813 75.4015 16.4475 76.8597 17.3182 78.1931L17.3359 78.1929C18.0722 76.8338 18.6936 75.4318 18.9429 73.9274L19.3049 73.9236C19.0389 75.5077 18.3738 76.9367 17.62 78.3313Z" fill="#231F20"/>
<path d="M24.3314 80.2639L24.2678 74.1875L20.9119 74.2227L20.9755 80.299L20.6221 80.3027L20.5551 73.9085L24.6179 73.8659L24.6849 80.2602L24.3314 80.2639Z" fill="#231F20"/>
<path d="M27.7379 74.0635C27.2698 74.0684 26.829 74.1613 26.5655 74.2787L26.595 77.0962C26.8159 77.1292 27.1608 77.1521 27.4787 77.1487C28.8032 77.1349 29.5388 76.5089 29.5292 75.5904C29.5188 74.6013 28.8683 74.0516 27.7379 74.0635ZM27.4821 77.4669C27.173 77.4701 26.8104 77.4472 26.5983 77.4141L26.6279 80.2404L26.2744 80.2441L26.2099 74.0883C26.6055 73.881 27.1517 73.7516 27.7346 73.7455C29.0946 73.7313 29.8702 74.4386 29.8822 75.5867C29.8937 76.6818 29.0187 77.4508 27.4821 77.4669Z" fill="#231F20"/>
<path d="M32.8601 74.7705C32.7331 74.4453 32.6408 74.0662 32.6408 74.0662L32.6231 74.0664C32.6231 74.0664 32.5388 74.4473 32.4186 74.7751L31.3718 77.7099L33.9684 77.6827L32.8601 74.7705ZM34.9126 80.1548L34.0863 77.9816L31.2601 78.0112L30.4791 80.2012L30.1084 80.2051L32.4435 73.7856L32.8145 73.7818L35.2835 80.1509L34.9126 80.1548Z" fill="#231F20"/>
<path d="M39.1819 77.1765C38.8002 76.995 38.4993 76.9449 37.7928 76.9523L36.6889 76.9639L36.7176 79.7019C37.028 79.8223 37.5676 79.9052 38.018 79.9005C39.2367 79.8877 39.9641 79.3411 39.9547 78.4403C39.9486 77.8574 39.6881 77.4185 39.1819 77.1765ZM37.9204 73.9481C37.4258 73.9533 36.941 74.0465 36.6597 74.1731L36.6858 76.6638L37.7455 76.6527C38.505 76.6448 38.7783 76.5978 39.1466 76.3378C39.4622 76.1134 39.6699 75.6873 39.665 75.2194C39.6566 74.4155 38.9801 73.9371 37.9204 73.9481ZM38.0213 80.2094C37.4649 80.2152 36.7481 80.0814 36.375 79.9L36.313 73.9826C36.6822 73.7931 37.2989 73.6453 37.9171 73.6388C39.2244 73.6251 39.9991 74.253 40.0092 75.2158C40.0188 76.1343 39.3617 76.6358 38.8683 76.7558L38.8685 76.7735C39.4349 76.8824 40.2873 77.3151 40.2991 78.4367C40.3104 79.5141 39.4433 80.1945 38.0213 80.2094Z" fill="#231F20"/>
<path d="M45.9753 80.0405L45.214 73.9715L43.3238 73.9913L43.1877 75.309C42.9788 77.2897 42.8735 79.0396 41.2164 80.2052L41.0364 79.9068C42.5094 78.8491 42.6252 77.258 42.8342 75.286L43.0028 73.6767L45.5374 73.6501L46.3376 80.0367L45.9753 80.0405Z" fill="#231F20"/>
<path d="M47.7686 80.0215L47.7016 73.6272L50.9341 73.5934L50.9374 73.9113L48.0493 73.9415L48.0765 76.5382L50.7615 76.5101L50.7648 76.8278L48.0799 76.856L48.1096 79.6999L50.9977 79.6697L51.001 79.9876L47.7686 80.0215Z" fill="#231F20"/>
<path d="M55.9874 79.9338L55.9543 76.7719L52.5984 76.807L52.6316 79.969L52.2781 79.9727L52.2111 73.5784L52.5646 73.5747L52.5951 76.4893L55.951 76.4542L55.9205 73.5395L56.274 73.5358L56.3409 79.9301L55.9874 79.9338Z" fill="#231F20"/>
<path d="M62.2126 79.8692L62.1564 74.4994C62.1528 74.155 62.1663 73.7574 62.1663 73.7574L62.1486 73.7575C62.1486 73.7575 61.9758 74.1215 61.7934 74.4239L58.3708 79.9094L57.9292 79.9141L57.8622 73.5198L58.2067 73.5162L58.2619 78.7888C58.2656 79.1419 58.2609 79.5396 58.2609 79.5396L58.2788 79.5394C58.2788 79.5394 58.4517 79.1843 58.6426 78.882L62.0132 73.4763L62.4901 73.4713L62.557 79.8656L62.2126 79.8692Z" fill="#231F20"/>
<path d="M64.1448 79.8496L64.0778 73.4553L67.3103 73.4215L67.3136 73.7394L64.4256 73.7697L64.4528 76.3664L67.1377 76.3382L67.141 76.656L64.4561 76.6841L64.4859 79.5281L67.3739 79.4978L67.3773 79.8158L64.1448 79.8496Z" fill="#231F20"/>
<path d="M76.3426 79.7209L75.5532 74.3234C75.5054 73.9971 75.4661 73.6177 75.4661 73.6177L75.4484 73.6179C75.4484 73.6179 75.3641 73.9986 75.2705 74.3175L73.6314 79.7493L73.2605 79.7532L71.5079 74.3569C71.4077 74.04 71.3154 73.6612 71.3154 73.6612L71.2977 73.6614C71.2977 73.6614 71.2664 74.0415 71.2254 74.3687L70.549 79.7816L70.2048 79.7852L71.0298 73.3815L71.5156 73.3765L73.2402 78.667C73.3497 79.0015 73.4334 79.398 73.4334 79.398L73.451 79.3979C73.451 79.3979 73.5264 78.9996 73.6288 78.6629L75.2426 73.3374L75.7281 73.3323L76.687 79.7173L76.3426 79.7209Z" fill="#231F20"/>
<path d="M78.0601 79.7031L77.9931 73.3088L81.2253 73.275L81.2287 73.5929L78.3408 73.6232L78.368 76.2199L81.053 76.1918L81.0563 76.5095L78.3714 76.5376L78.4011 79.3816L81.289 79.3513L81.2923 79.6693L78.0601 79.7031Z" fill="#231F20"/>
<path d="M86.0979 79.6184L84.2736 76.6253L84.256 76.6255L82.4948 79.6561L82.1062 79.6602L84.0586 76.3361L82.1629 73.2646L82.5515 73.2605L84.2499 76.0426L84.2675 76.0425L85.9073 73.2254L86.2961 73.2213L84.4649 76.3319L86.4867 79.6143L86.0979 79.6184Z" fill="#231F20"/>
<path d="M89.8572 74.1729C89.7302 73.8476 89.6379 73.4686 89.6379 73.4686L89.6202 73.4687C89.6202 73.4687 89.5359 73.8497 89.4156 74.1775L88.3688 77.1122L90.9652 77.0851L89.8572 74.1729ZM91.9097 79.5571L91.0834 77.3839L88.2572 77.4135L87.4762 79.6035L87.1055 79.6074L89.4406 73.188L89.8115 73.1841L92.2806 79.5532L91.9097 79.5571Z" fill="#231F20"/>
<path d="M97.0692 79.5022L97.0361 76.3402L93.6802 76.3754L93.7133 79.5373L93.3599 79.541L93.2929 73.1467L93.6464 73.143L93.6769 76.0577L97.0328 76.0225L97.0023 73.1079L97.3557 73.1042L97.4227 79.4985L97.0692 79.5022Z" fill="#231F20"/>
<path d="M103.294 79.4376L103.238 74.0677C103.234 73.7233 103.248 73.3257 103.248 73.3257L103.23 73.3259C103.23 73.3259 103.057 73.6898 102.875 73.9923L99.4521 79.4778L99.0105 79.4824L98.9435 73.0881L99.288 73.0845L99.3432 78.3572C99.3469 78.7102 99.3422 79.108 99.3422 79.108L99.3601 79.1078C99.3601 79.1078 99.533 78.7527 99.7239 78.4504L103.094 73.0447L103.571 73.0397L103.638 79.434L103.294 79.4376Z" fill="#231F20"/>
<path d="M106.499 79.4943C105.907 79.5005 105.279 79.3746 104.835 79.1852L104.973 78.8923C105.355 79.0649 105.948 79.1824 106.495 79.1766C107.723 79.1638 108.485 78.5817 108.475 77.619C108.464 76.5502 107.417 76.1107 106.092 76.1246C106.004 76.1255 105.881 76.1268 105.766 76.1368L105.763 75.8363C107.025 75.8231 108.132 75.2285 108.123 74.3719C108.115 73.6126 107.511 73.2303 106.469 73.2412C105.974 73.2464 105.41 73.3671 104.997 73.5481L104.844 73.2671C105.266 73.0681 105.847 72.9295 106.465 72.9231C107.702 72.9101 108.467 73.4409 108.477 74.3682C108.485 75.1986 107.652 75.7373 106.956 75.8947L106.956 75.9124C107.699 76.0017 108.816 76.3963 108.829 77.6153C108.84 78.7281 107.938 79.4793 106.499 79.4943Z" fill="#231F20"/>
<path d="M112.43 73.9385C112.303 73.6132 112.211 73.2342 112.211 73.2342L112.193 73.2344C112.193 73.2344 112.109 73.6153 111.989 73.9431L110.942 76.8779L113.538 76.8507L112.43 73.9385ZM114.483 79.3227L113.657 77.1495L110.83 77.1791L110.049 79.3692L109.679 79.373L112.014 72.9536L112.385 72.9497L114.854 79.3189L114.483 79.3227Z" fill="#231F20"/>
<path d="M120.263 80.5505L119.963 80.5536L119.914 79.2646L115.931 79.3063L115.864 72.9118L116.217 72.9081L116.281 78.9844L119.584 78.9498L119.52 72.8735L119.873 72.8698L119.937 78.9373L120.274 79.0663L120.263 80.5505Z" fill="#231F20"/>
<path d="M125.921 79.2012L125.864 73.8314C125.861 73.487 125.874 73.0894 125.874 73.0894L125.857 73.0896C125.857 73.0896 125.684 73.4535 125.501 73.756L122.079 79.2415L121.637 79.2461L121.57 72.8518L121.915 72.8482L121.97 78.1209C121.974 78.4739 121.969 78.8717 121.969 78.8717L121.987 78.8715C121.987 78.8715 122.16 78.5164 122.351 78.214L125.721 72.8083L126.198 72.8034L126.265 79.1976L125.921 79.2012Z" fill="#231F20"/>
<path d="M132.134 79.1348L132.078 73.765C132.075 73.4206 132.088 73.023 132.088 73.023L132.07 73.0232C132.07 73.0232 131.898 73.3871 131.715 73.6895L128.293 79.1751L127.851 79.1797L127.784 72.7854L128.129 72.7818L128.184 78.0545C128.187 78.4075 128.183 78.8052 128.183 78.8052L128.201 78.8051C128.201 78.8051 128.374 78.4499 128.565 78.1476L131.935 72.7419L132.412 72.7369L132.479 79.1312L132.134 79.1348Z" fill="#231F20"/>
<path d="M140.913 79.045L140.856 73.6752C140.853 73.3307 140.866 72.9331 140.866 72.9331L140.849 72.9333C140.849 72.9333 140.676 73.2973 140.493 73.5997L137.071 79.0852L136.629 79.0898L136.562 72.6956L136.907 72.692L136.962 77.9646C136.966 78.3177 136.961 78.7154 136.961 78.7154L136.979 78.7152C136.979 78.7152 137.152 78.3601 137.343 78.0578L140.713 72.6521L141.19 72.6471L141.257 79.0414L140.913 79.045Z" fill="#231F20"/>
<path d="M147.65 73.5674C147.523 73.2422 147.431 72.8631 147.431 72.8631L147.413 72.8633C147.413 72.8633 147.329 73.2442 147.209 73.572L146.162 76.5068L148.759 76.4796L147.65 73.5674ZM149.703 78.9516L148.877 76.7784L146.05 76.808L145.269 78.9981L144.899 79.002L147.234 72.5825L147.605 72.5786L150.074 78.9478L149.703 78.9516Z" fill="#231F20"/>
<path d="M153.971 75.9753C153.589 75.7938 153.288 75.7437 152.582 75.7511L151.478 75.7627L151.506 78.5007C151.817 78.6211 152.356 78.704 152.807 78.6993C154.026 78.6865 154.753 78.1399 154.743 77.2391C154.737 76.6562 154.477 76.2173 153.971 75.9753ZM152.709 72.747C152.215 72.7522 151.73 72.8453 151.449 72.9719L151.475 75.4627L152.534 75.4516C153.294 75.4436 153.567 75.3966 153.935 75.1366C154.251 74.9122 154.459 74.4861 154.454 74.0183C154.445 73.2144 153.769 72.7359 152.709 72.747ZM152.81 79.0082C152.254 79.014 151.537 78.8802 151.164 78.6988L151.102 72.7815C151.471 72.5919 152.088 72.4441 152.706 72.4376C154.013 72.424 154.788 73.0518 154.798 74.0147C154.808 74.9331 154.15 75.4346 153.657 75.5546L153.657 75.5723C154.224 75.6812 155.076 76.1139 155.088 77.2355C155.099 78.3129 154.232 78.9933 152.81 79.0082Z" fill="#231F20"/>
<path d="M157.862 72.7899L157.926 78.8662L157.573 78.8699L157.509 72.7936L155.716 72.8123L155.713 72.4944L159.652 72.4531L159.655 72.7711L157.862 72.7899Z" fill="#231F20"/>
<path d="M162.68 72.6517C161.32 72.6659 160.637 74.0333 160.654 75.6406C160.67 77.248 161.382 78.601 162.743 78.5867C164.103 78.5725 164.821 77.2045 164.805 75.5972C164.788 73.9898 164.04 72.6374 162.68 72.6517ZM162.746 78.9044C161.156 78.9211 160.319 77.4283 160.301 75.6443C160.282 73.8604 161.087 72.3504 162.677 72.3338C164.267 72.3171 165.139 73.8095 165.158 75.5935C165.176 77.3775 164.336 78.8878 162.746 78.9044Z" fill="#231F20"/>
<path d="M172.411 78.7131L171.621 73.3156C171.574 72.9893 171.534 72.6099 171.534 72.6099L171.517 72.6101C171.517 72.6101 171.432 72.9908 171.339 73.3097L169.699 78.7415L169.329 78.7453L167.576 73.3491C167.476 73.0322 167.384 72.6534 167.384 72.6534L167.366 72.6536C167.366 72.6536 167.334 73.0337 167.294 73.3609L166.617 78.7737L166.273 78.7773L167.098 72.3737L167.584 72.3686L169.308 77.6592C169.418 77.9936 169.501 78.3902 169.501 78.3902L169.519 78.39C169.519 78.39 169.594 77.9918 169.697 77.6551L171.311 72.3296L171.796 72.3245L172.755 78.7095L172.411 78.7131Z" fill="#231F20"/>
<path d="M176.179 72.5111C174.819 72.5253 174.135 73.8927 174.152 75.5C174.169 77.1074 174.881 78.4603 176.241 78.4461C177.601 78.4319 178.32 77.0639 178.303 75.4566C178.286 73.8492 177.539 72.4968 176.179 72.5111ZM176.244 78.7638C174.655 78.7805 173.818 77.2877 173.799 75.5037C173.78 73.7197 174.586 72.2098 176.176 72.1931C177.765 72.1765 178.638 73.6689 178.656 75.4529C178.675 77.2368 177.834 78.7472 176.244 78.7638Z" fill="#231F20"/>
<path d="M181.449 75.2371C181.104 75.2408 180.619 75.3074 180.399 75.3806L180.429 78.1979C180.695 78.3099 181.173 78.3935 181.65 78.3885C182.851 78.3759 183.463 77.7865 183.452 76.7884C183.442 75.7904 182.721 75.2238 181.449 75.2371ZM181.653 78.7062C181.097 78.712 180.486 78.5948 180.078 78.3961L180.013 72.2401L183.122 72.2075L183.125 72.5254L180.37 72.5543L180.396 75.0627C180.607 74.9898 181.048 74.9234 181.446 74.9192C182.929 74.9037 183.794 75.6277 183.806 76.7847C183.818 77.933 183.057 78.6915 181.653 78.7062Z" fill="#231F20"/>
<path d="M189.453 78.5372L189.396 73.1674C189.393 72.8229 189.406 72.4253 189.406 72.4253L189.389 72.4255C189.389 72.4255 189.216 72.7894 189.033 73.0919L185.611 78.5774L185.169 78.582L185.102 72.1878L185.447 72.1841L185.502 77.4568C185.506 77.8099 185.501 78.2076 185.501 78.2076L185.519 78.2074C185.519 78.2074 185.692 77.8523 185.883 77.55L189.253 72.1443L189.73 72.1393L189.797 78.5336L189.453 78.5372Z" fill="#231F20"/>
<path d="M195.795 78.4702L195.034 72.4012L193.144 72.421L193.008 73.7387C192.799 75.7193 192.694 77.4693 191.036 78.6349L190.856 78.3364C192.329 77.2788 192.445 75.6877 192.654 73.7156L192.823 72.1064L195.357 72.0798L196.158 78.4664L195.795 78.4702Z" fill="#231F20"/>
<path d="M198.909 75.056C198.591 75.0593 198.123 75.1258 197.903 75.199L197.933 78.0163C198.199 78.1283 198.641 78.2122 199.109 78.2073C200.248 78.1954 200.878 77.597 200.868 76.6076C200.858 75.6362 200.127 75.0432 198.909 75.056ZM199.113 78.525C198.53 78.5311 197.981 78.4132 197.581 78.2145L197.517 72.0584L197.87 72.0547L197.9 74.881C198.111 74.8082 198.543 74.7418 198.905 74.738C200.345 74.723 201.21 75.4823 201.221 76.6039C201.233 77.7523 200.473 78.5108 199.113 78.525Z" fill="#231F20"/>
<path d="M206.274 78.3596L206.241 75.1977L202.885 75.2328L202.918 78.3947L202.565 78.3984L202.498 72.0042L202.851 72.0005L202.882 74.9151L206.238 74.88L206.207 71.9653L206.561 71.9616L206.628 78.3559L206.274 78.3596Z" fill="#231F20"/>
<path d="M210.354 72.1536C208.994 72.1679 208.31 73.5353 208.327 75.1426C208.344 76.7499 209.056 78.1029 210.416 78.0887C211.776 78.0744 212.495 76.7065 212.478 75.0991C212.461 73.4918 211.714 72.1394 210.354 72.1536ZM210.419 78.4064C208.829 78.423 207.993 76.9303 207.974 75.1463C207.955 73.3623 208.761 71.8524 210.35 71.8357C211.94 71.8191 212.813 73.3115 212.831 75.0954C212.85 76.8794 212.009 78.3897 210.419 78.4064Z" fill="#231F20"/>
<path d="M214.567 72.1953L214.631 78.2717L214.277 78.2754L214.21 71.8811L217.319 71.8486L217.322 72.1665L214.567 72.1953Z" fill="#231F20"/>
<path d="M220.351 72.0501C218.99 72.0644 218.307 73.4317 218.324 75.0391C218.341 76.6464 219.052 77.9994 220.413 77.9852C221.773 77.9709 222.492 76.603 222.475 74.9956C222.458 73.3883 221.711 72.0359 220.351 72.0501ZM220.416 78.3029C218.826 78.3195 217.989 76.8268 217.971 75.0428C217.952 73.2588 218.757 71.7488 220.347 71.7322C221.937 71.7155 222.809 73.2079 222.828 74.9919C222.847 76.7759 222.006 78.2862 220.416 78.3029Z" fill="#231F20"/>
<path d="M228.389 72.0516L228.453 78.1279L228.099 78.1316L228.036 72.0553L226.243 72.074L226.24 71.7561L230.179 71.7149L230.182 72.0328L228.389 72.0516Z" fill="#231F20"/>
<path d="M232.801 71.917C232.333 71.9219 231.892 72.0148 231.629 72.1322L231.658 74.9497C231.879 74.9827 232.224 75.0056 232.542 75.0023C233.867 74.9884 234.602 74.3624 234.593 73.4439C234.582 72.4548 233.932 71.9052 232.801 71.917ZM232.546 75.3204C232.236 75.3237 231.874 75.3007 231.662 75.2676L231.691 78.094L231.338 78.0977L231.273 71.9418C231.669 71.7345 232.215 71.6052 232.798 71.5991C234.158 71.5848 234.934 72.2921 234.946 73.4402C234.957 74.5353 234.082 75.3043 232.546 75.3204Z" fill="#231F20"/>
<path d="M237.924 72.624C237.797 72.2988 237.705 71.9197 237.705 71.9197L237.687 71.9199C237.687 71.9199 237.603 72.3008 237.483 72.6287L236.436 75.5634L239.032 75.5362L237.924 72.624ZM239.977 78.0083L239.15 75.8351L236.324 75.8647L235.543 78.0547L235.172 78.0586L237.508 71.6392L237.878 71.6353L240.347 78.0044L239.977 78.0083Z" fill="#231F20"/>
<path d="M245.132 77.9533L245.099 74.7914L241.743 74.8266L241.777 77.9885L241.423 77.9922L241.356 71.5979L241.71 71.5942L241.74 74.5088L245.096 74.4737L245.065 71.5591L245.419 71.5554L245.486 77.9496L245.132 77.9533Z" fill="#231F20"/>
<path d="M249.339 77.9995C248.023 78.0133 246.855 76.9923 246.832 74.74C246.808 72.488 247.954 71.4424 249.27 71.4286C249.844 71.4226 250.331 71.55 250.616 71.7415L250.486 72.0341C250.255 71.8778 249.795 71.7413 249.273 71.7467C248.152 71.7585 247.172 72.6606 247.194 74.7363C247.215 76.8117 248.214 77.6935 249.335 77.6818C249.857 77.6763 250.314 77.5302 250.542 77.3688L250.678 77.6589C250.397 77.8559 249.913 77.9935 249.339 77.9995Z" fill="#231F20"/>
<path d="M255.677 77.842L255.614 71.7657L252.258 71.8008L252.321 77.8772L251.968 77.8809L251.901 71.4866L255.964 71.444L256.031 77.8383L255.677 77.842Z" fill="#231F20"/>
<path d="M259.757 71.6361C258.396 71.6503 257.713 73.0177 257.73 74.625C257.747 76.2324 258.459 77.5853 259.819 77.5711C261.179 77.5569 261.898 76.1889 261.881 74.5816C261.864 72.9742 261.117 71.6218 259.757 71.6361ZM259.822 77.8888C258.232 77.9055 257.395 76.4127 257.377 74.6287C257.358 72.8447 258.163 71.3348 259.753 71.3181C261.343 71.3015 262.215 72.7939 262.234 74.5779C262.253 76.3618 261.412 77.8722 259.822 77.8888Z" fill="#231F20"/>
<path d="M265.108 71.5791C264.64 71.584 264.2 71.6769 263.936 71.7943L263.966 74.6118C264.186 74.6448 264.531 74.6677 264.849 74.6644C266.174 74.6505 266.909 74.0245 266.9 73.106C266.889 72.1169 266.239 71.5673 265.108 71.5791ZM264.853 74.9825C264.544 74.9858 264.181 74.9628 263.969 74.9297L263.998 77.7561L263.645 77.7598L263.581 71.6039C263.976 71.3966 264.522 71.2673 265.105 71.2612C266.465 71.2469 267.241 71.9542 267.253 73.1023C267.264 74.1975 266.389 74.9664 264.853 74.9825Z" fill="#231F20"/>
<path d="M270.107 71.6141L270.171 77.6904L269.817 77.6941L269.754 71.6178L267.961 71.6365L267.957 71.3186L271.896 71.2774L271.9 71.5953L270.107 71.6141Z" fill="#231F20"/>
<path d="M274.816 72.2354C274.689 71.9101 274.597 71.5311 274.597 71.5311L274.579 71.5312C274.579 71.5312 274.495 71.9122 274.375 72.24L273.328 75.1747L275.925 75.1476L274.816 72.2354ZM276.869 77.6196L276.043 75.4464L273.216 75.476L272.435 77.666L272.065 77.6699L274.4 71.2505L274.771 71.2466L277.24 77.6157L276.869 77.6196Z" fill="#231F20"/>
</svg>
