<svg width="29" height="28" viewBox="0 0 29 28" fill="none" xmlns="http://www.w3.org/2000/svg">
<path d="M14.76 8.01318C16.9696 8.01318 18.7754 9.80831 18.7756 12.0278C18.7756 14.2458 16.9714 16.0317 14.76 16.0317C12.5505 16.0315 10.7454 14.2357 10.7454 12.0161C10.7456 9.79842 12.5489 8.01337 14.76 8.01318ZM14.76 8.76318C12.9688 8.76337 11.4956 10.2223 11.4954 12.0278C11.4954 13.8322 12.9557 15.2933 14.76 15.2935C16.5645 15.2935 18.0256 13.8323 18.0256 12.0278C18.0254 10.2221 16.5513 8.76318 14.76 8.76318Z" fill="white" stroke="white"/>
<mask id="path-2-inside-1_274_8272" fill="white">
<path d="M14.7602 26.5535C13.0335 26.5535 11.2952 25.9002 9.94188 24.6052C6.50022 21.2918 2.69688 16.0068 4.13188 9.7185C5.42688 4.0135 10.4085 1.4585 14.7602 1.4585C14.7602 1.4585 14.7602 1.4585 14.7719 1.4585C19.1236 1.4585 24.1052 4.0135 25.4002 9.73016C26.8236 16.0185 23.0202 21.2918 19.5785 24.6052C18.2252 25.9002 16.4869 26.5535 14.7602 26.5535ZM14.7602 3.2085C11.3652 3.2085 7.00188 5.01683 5.84688 10.1035C4.58688 15.5985 8.04022 20.3352 11.1669 23.3335C13.1852 25.2818 16.3469 25.2818 18.3652 23.3335C21.4802 20.3352 24.9335 15.5985 23.6969 10.1035C22.5302 5.01683 18.1552 3.2085 14.7602 3.2085Z"/>
</mask>
<path d="M14.7602 26.5535C13.0335 26.5535 11.2952 25.9002 9.94188 24.6052C6.50022 21.2918 2.69688 16.0068 4.13188 9.7185C5.42688 4.0135 10.4085 1.4585 14.7602 1.4585C14.7602 1.4585 14.7602 1.4585 14.7719 1.4585C19.1236 1.4585 24.1052 4.0135 25.4002 9.73016C26.8236 16.0185 23.0202 21.2918 19.5785 24.6052C18.2252 25.9002 16.4869 26.5535 14.7602 26.5535ZM14.7602 3.2085C11.3652 3.2085 7.00188 5.01683 5.84688 10.1035C4.58688 15.5985 8.04022 20.3352 11.1669 23.3335C13.1852 25.2818 16.3469 25.2818 18.3652 23.3335C21.4802 20.3352 24.9335 15.5985 23.6969 10.1035C22.5302 5.01683 18.1552 3.2085 14.7602 3.2085Z" fill="white"/>
<path d="M9.94188 24.6052L8.55478 26.046L8.55915 26.0502L9.94188 24.6052ZM4.13188 9.7185L6.08176 10.1635L6.08227 10.1612L4.13188 9.7185ZM25.4002 9.73016L27.3509 9.28864L27.3508 9.2883L25.4002 9.73016ZM19.5785 24.6052L20.9613 26.0502L20.9656 26.046L19.5785 24.6052ZM5.84688 10.1035L7.79629 10.5505L7.79724 10.5464L5.84688 10.1035ZM11.1669 23.3335L12.5559 21.8945L12.5512 21.89L11.1669 23.3335ZM18.3652 23.3335L16.9782 21.8926L16.9762 21.8945L18.3652 23.3335ZM23.6969 10.1035L25.6481 9.66437L25.6463 9.65639L23.6969 10.1035ZM14.7602 26.5535V24.5535C13.5373 24.5535 12.2976 24.0912 11.3246 23.1601L9.94188 24.6052L8.55915 26.0502C10.2929 27.7092 12.5298 28.5535 14.7602 28.5535V26.5535ZM9.94188 24.6052L11.329 23.1643C8.0059 19.9652 4.89341 15.3709 6.08176 10.1635L4.13188 9.7185L2.18201 9.27353C0.500358 16.6427 4.99453 22.6185 8.55479 26.046L9.94188 24.6052ZM4.13188 9.7185L6.08227 10.1612C7.12144 5.58322 11.1012 3.4585 14.7602 3.4585V1.4585V-0.541504C9.71592 -0.541504 3.73232 2.44377 2.1815 9.27577L4.13188 9.7185ZM14.7602 1.4585C14.7602 3.4585 14.7602 3.4585 14.7602 3.4585C14.7602 3.4585 14.7602 3.4585 14.7602 3.4585H14.7602H14.7602C14.7602 3.4585 14.7602 3.4585 14.7602 3.4585C14.7602 3.4585 14.7602 3.4585 14.7602 3.4585C14.7602 3.4585 14.7602 3.4585 14.7602 3.4585C14.7602 3.4585 14.7602 3.4585 14.7602 3.4585C14.7602 3.4585 14.7602 3.4585 14.7602 3.4585C14.7602 3.4585 14.7602 3.4585 14.7602 3.4585C14.7602 3.4585 14.7602 3.4585 14.7602 3.4585C14.7602 3.4585 14.7602 3.4585 14.7602 3.4585C14.7602 3.4585 14.7602 3.4585 14.7602 3.4585C14.7602 3.4585 14.7602 3.4585 14.7602 3.4585H14.7602H14.7602C14.7602 3.4585 14.7602 3.4585 14.7602 3.4585C14.7602 3.4585 14.7602 3.4585 14.7602 3.4585C14.7602 3.4585 14.7602 3.4585 14.7602 3.4585C14.7602 3.4585 14.7602 3.4585 14.7602 3.4585C14.7602 3.4585 14.7602 3.4585 14.7602 3.4585C14.7602 3.4585 14.7602 3.4585 14.7602 3.4585C14.7602 3.4585 14.7602 3.4585 14.7602 3.4585C14.7602 3.4585 14.7602 3.4585 14.7602 3.4585C14.7602 3.4585 14.7602 3.4585 14.7602 3.4585C14.7602 3.4585 14.7602 3.4585 14.7602 3.4585H14.7602H14.7602C14.7602 3.4585 14.7602 3.4585 14.7602 3.4585C14.7602 3.4585 14.7602 3.4585 14.7602 3.4585H14.7602C14.7602 3.4585 14.7602 3.4585 14.7602 3.4585H14.7603C14.7603 3.4585 14.7603 3.4585 14.7603 3.4585H14.7603C14.7603 3.4585 14.7603 3.4585 14.7603 3.4585H14.7603C14.7603 3.4585 14.7603 3.4585 14.7603 3.4585C14.7603 3.4585 14.7603 3.4585 14.7603 3.4585H14.7603C14.7603 3.4585 14.7603 3.4585 14.7603 3.4585C14.7603 3.4585 14.7603 3.4585 14.7603 3.4585C14.7603 3.4585 14.7603 3.4585 14.7603 3.4585C14.7603 3.4585 14.7603 3.4585 14.7603 3.4585C14.7603 3.4585 14.7603 3.4585 14.7603 3.4585C14.7603 3.4585 14.7603 3.4585 14.7603 3.4585C14.7603 3.4585 14.7603 3.4585 14.7603 3.4585C14.7603 3.4585 14.7603 3.4585 14.7603 3.4585C14.7603 3.4585 14.7603 3.4585 14.7603 3.4585C14.7603 3.4585 14.7603 3.4585 14.7603 3.4585C14.7603 3.4585 14.7603 3.4585 14.7603 3.4585C14.7603 3.4585 14.7603 3.4585 14.7603 3.4585C14.7603 3.4585 14.7603 3.4585 14.7603 3.4585C14.7603 3.4585 14.7603 3.4585 14.7603 3.4585C14.7603 3.4585 14.7603 3.4585 14.7603 3.4585C14.7603 3.4585 14.7603 3.4585 14.7603 3.4585C14.7603 3.4585 14.7603 3.4585 14.7603 3.4585C14.7603 3.4585 14.7603 3.4585 14.7603 3.4585C14.7603 3.4585 14.7603 3.4585 14.7603 3.4585C14.7603 3.4585 14.7603 3.4585 14.7603 3.4585C14.7603 3.4585 14.7603 3.4585 14.7603 3.4585C14.7603 3.4585 14.7603 3.4585 14.7603 3.4585C14.7603 3.4585 14.7603 3.4585 14.7603 3.4585C14.7603 3.4585 14.7603 3.4585 14.7603 3.4585C14.7603 3.4585 14.7603 3.4585 14.7603 3.4585C14.7603 3.4585 14.7603 3.4585 14.7603 3.4585C14.7603 3.4585 14.7603 3.4585 14.7603 3.4585C14.7603 3.4585 14.7603 3.4585 14.7603 3.4585C14.7603 3.4585 14.7603 3.4585 14.7603 3.4585C14.7603 3.4585 14.7603 3.4585 14.7603 3.4585C14.7603 3.4585 14.7603 3.4585 14.7603 3.4585C14.7603 3.4585 14.7603 3.4585 14.7603 3.4585C14.7603 3.4585 14.7603 3.4585 14.7603 3.4585C14.7603 3.4585 14.7603 3.4585 14.7603 3.4585C14.7603 3.4585 14.7603 3.4585 14.7603 3.4585C14.7603 3.4585 14.7604 3.4585 14.7604 3.4585C14.7604 3.4585 14.7604 3.4585 14.7604 3.4585C14.7604 3.4585 14.7604 3.4585 14.7604 3.4585C14.7604 3.4585 14.7604 3.4585 14.7604 3.4585C14.7604 3.4585 14.7604 3.4585 14.7604 3.4585C14.7604 3.4585 14.7604 3.4585 14.7604 3.4585C14.7604 3.4585 14.7604 3.4585 14.7604 3.4585C14.7604 3.4585 14.7604 3.4585 14.7604 3.4585C14.7604 3.4585 14.7604 3.4585 14.7604 3.4585C14.7604 3.4585 14.7604 3.4585 14.7604 3.4585C14.7604 3.4585 14.7604 3.4585 14.7604 3.4585C14.7604 3.4585 14.7604 3.4585 14.7604 3.4585C14.7604 3.4585 14.7604 3.4585 14.7604 3.4585C14.7604 3.4585 14.7604 3.4585 14.7604 3.4585C14.7604 3.4585 14.7604 3.4585 14.7604 3.4585C14.7604 3.4585 14.7604 3.4585 14.7604 3.4585C14.7604 3.4585 14.7604 3.4585 14.7604 3.4585C14.7604 3.4585 14.7604 3.4585 14.7604 3.4585C14.7604 3.4585 14.7604 3.4585 14.7604 3.4585C14.7604 3.4585 14.7604 3.4585 14.7604 3.4585C14.7604 3.4585 14.7604 3.4585 14.7604 3.4585C14.7604 3.4585 14.7604 3.4585 14.7604 3.4585C14.7604 3.4585 14.7604 3.4585 14.7604 3.4585C14.7604 3.4585 14.7604 3.4585 14.7604 3.4585C14.7605 3.4585 14.7605 3.4585 14.7605 3.4585C14.7605 3.4585 14.7605 3.4585 14.7605 3.4585C14.7605 3.4585 14.7605 3.4585 14.7605 3.4585C14.7605 3.4585 14.7605 3.4585 14.7605 3.4585C14.7605 3.4585 14.7605 3.4585 14.7605 3.4585C14.7605 3.4585 14.7605 3.4585 14.7605 3.4585C14.7605 3.4585 14.7605 3.4585 14.7605 3.4585C14.7605 3.4585 14.7605 3.4585 14.7605 3.4585C14.7605 3.4585 14.7605 3.4585 14.7605 3.4585C14.7605 3.4585 14.7605 3.4585 14.7605 3.4585C14.7605 3.4585 14.7605 3.4585 14.7605 3.4585C14.7605 3.4585 14.7605 3.4585 14.7605 3.4585C14.7605 3.4585 14.7605 3.4585 14.7605 3.4585C14.7605 3.4585 14.7605 3.4585 14.7605 3.4585C14.7605 3.4585 14.7605 3.4585 14.7605 3.4585C14.7605 3.4585 14.7605 3.4585 14.7605 3.4585C14.7605 3.4585 14.7605 3.4585 14.7605 3.4585C14.7605 3.4585 14.7606 3.4585 14.7606 3.4585C14.7606 3.4585 14.7606 3.4585 14.7606 3.4585C14.7606 3.4585 14.7606 3.4585 14.7606 3.4585C14.7606 3.4585 14.7606 3.4585 14.7606 3.4585C14.7606 3.4585 14.7606 3.4585 14.7606 3.4585C14.7606 3.4585 14.7606 3.4585 14.7606 3.4585C14.7606 3.4585 14.7606 3.4585 14.7606 3.4585C14.7606 3.4585 14.7606 3.4585 14.7606 3.4585C14.7606 3.4585 14.7606 3.4585 14.7606 3.4585C14.7606 3.4585 14.7606 3.4585 14.7606 3.4585C14.7606 3.4585 14.7606 3.4585 14.7606 3.4585C14.7606 3.4585 14.7606 3.4585 14.7606 3.4585C14.7606 3.4585 14.7606 3.4585 14.7606 3.4585C14.7606 3.4585 14.7606 3.4585 14.7606 3.4585C14.7606 3.4585 14.7606 3.4585 14.7607 3.4585C14.7607 3.4585 14.7607 3.4585 14.7607 3.4585C14.7607 3.4585 14.7607 3.4585 14.7607 3.4585C14.7607 3.4585 14.7607 3.4585 14.7607 3.4585C14.7607 3.4585 14.7607 3.4585 14.7607 3.4585C14.7607 3.4585 14.7607 3.4585 14.7607 3.4585C14.7607 3.4585 14.7607 3.4585 14.7607 3.4585C14.7607 3.4585 14.7607 3.4585 14.7607 3.4585C14.7607 3.4585 14.7607 3.4585 14.7607 3.4585C14.7607 3.4585 14.7607 3.4585 14.7607 3.4585C14.7607 3.4585 14.7607 3.4585 14.7607 3.4585C14.7607 3.4585 14.7607 3.4585 14.7607 3.4585C14.7607 3.4585 14.7607 3.4585 14.7607 3.4585C14.7608 3.4585 14.7608 3.4585 14.7608 3.4585C14.7608 3.4585 14.7608 3.4585 14.7608 3.4585C14.7608 3.4585 14.7608 3.4585 14.7608 3.4585C14.7608 3.4585 14.7608 3.4585 14.7608 3.4585C14.7608 3.4585 14.7608 3.4585 14.7608 3.4585C14.7608 3.4585 14.7608 3.4585 14.7608 3.4585C14.7608 3.4585 14.7608 3.4585 14.7608 3.4585C14.7608 3.4585 14.7608 3.4585 14.7608 3.4585C14.7608 3.4585 14.7608 3.4585 14.7608 3.4585C14.7608 3.4585 14.7608 3.4585 14.7608 3.4585C14.7608 3.4585 14.7608 3.4585 14.7609 3.4585C14.7609 3.4585 14.7609 3.4585 14.7609 3.4585C14.7609 3.4585 14.7609 3.4585 14.7609 3.4585C14.7609 3.4585 14.7609 3.4585 14.7609 3.4585C14.7609 3.4585 14.7609 3.4585 14.7609 3.4585C14.7609 3.4585 14.7609 3.4585 14.7609 3.4585C14.7609 3.4585 14.7609 3.4585 14.7609 3.4585C14.7609 3.4585 14.7609 3.4585 14.7609 3.4585C14.7609 3.4585 14.7609 3.4585 14.7609 3.4585C14.7609 3.4585 14.7609 3.4585 14.7609 3.4585C14.7609 3.4585 14.761 3.4585 14.761 3.4585C14.761 3.4585 14.761 3.4585 14.761 3.4585C14.761 3.4585 14.761 3.4585 14.761 3.4585C14.761 3.4585 14.761 3.4585 14.761 3.4585C14.761 3.4585 14.761 3.4585 14.761 3.4585C14.761 3.4585 14.761 3.4585 14.761 3.4585C14.761 3.4585 14.761 3.4585 14.761 3.4585C14.761 3.4585 14.761 3.4585 14.761 3.4585C14.761 3.4585 14.761 3.4585 14.761 3.4585C14.761 3.4585 14.7611 3.4585 14.7611 3.4585C14.7611 3.4585 14.7611 3.4585 14.7611 3.4585C14.7611 3.4585 14.7611 3.4585 14.7611 3.4585C14.7611 3.4585 14.7611 3.4585 14.7611 3.4585C14.7611 3.4585 14.7611 3.4585 14.7611 3.4585C14.7611 3.4585 14.7611 3.4585 14.7611 3.4585C14.7611 3.4585 14.7611 3.4585 14.7611 3.4585C14.7611 3.4585 14.7611 3.4585 14.7611 3.4585C14.7611 3.4585 14.7612 3.4585 14.7612 3.4585C14.7612 3.4585 14.7612 3.4585 14.7612 3.4585C14.7612 3.4585 14.7612 3.4585 14.7612 3.4585C14.7612 3.4585 14.7612 3.4585 14.7612 3.4585C14.7612 3.4585 14.7612 3.4585 14.7612 3.4585C14.7612 3.4585 14.7612 3.4585 14.7612 3.4585C14.7612 3.4585 14.7612 3.4585 14.7612 3.4585C14.7612 3.4585 14.7612 3.4585 14.7612 3.4585C14.7613 3.4585 14.7613 3.4585 14.7613 3.4585C14.7613 3.4585 14.7613 3.4585 14.7613 3.4585C14.7613 3.4585 14.7613 3.4585 14.7613 3.4585C14.7613 3.4585 14.7613 3.4585 14.7613 3.4585C14.7613 3.4585 14.7613 3.4585 14.7613 3.4585C14.7613 3.4585 14.7613 3.4585 14.7613 3.4585C14.7613 3.4585 14.7613 3.4585 14.7613 3.4585C14.7613 3.4585 14.7614 3.4585 14.7614 3.4585C14.7614 3.4585 14.7614 3.4585 14.7614 3.4585C14.7614 3.4585 14.7614 3.4585 14.7614 3.4585C14.7614 3.4585 14.7614 3.4585 14.7614 3.4585C14.7614 3.4585 14.7614 3.4585 14.7614 3.4585C14.7614 3.4585 14.7614 3.4585 14.7614 3.4585C14.7614 3.4585 14.7614 3.4585 14.7614 3.4585C14.7615 3.4585 14.7615 3.4585 14.7615 3.4585C14.7615 3.4585 14.7615 3.4585 14.7615 3.4585C14.7615 3.4585 14.7615 3.4585 14.7615 3.4585C14.7615 3.4585 14.7615 3.4585 14.7615 3.4585C14.7615 3.4585 14.7615 3.4585 14.7615 3.4585C14.7615 3.4585 14.7615 3.4585 14.7615 3.4585C14.7615 3.4585 14.7616 3.4585 14.7616 3.4585C14.7616 3.4585 14.7616 3.4585 14.7616 3.4585C14.7616 3.4585 14.7616 3.4585 14.7616 3.4585C14.7616 3.4585 14.7616 3.4585 14.7616 3.4585C14.7616 3.4585 14.7616 3.4585 14.7616 3.4585C14.7616 3.4585 14.7616 3.4585 14.7616 3.4585C14.7616 3.4585 14.7617 3.4585 14.7617 3.4585C14.7617 3.4585 14.7617 3.4585 14.7617 3.4585C14.7617 3.4585 14.7617 3.4585 14.7617 3.4585C14.7617 3.4585 14.7617 3.4585 14.7617 3.4585C14.7617 3.4585 14.7617 3.4585 14.7617 3.4585C14.7617 3.4585 14.7617 3.4585 14.7617 3.4585C14.7618 3.4585 14.7618 3.4585 14.7618 3.4585C14.7618 3.4585 14.7618 3.4585 14.7618 3.4585C14.7618 3.4585 14.7618 3.4585 14.7618 3.4585C14.7618 3.4585 14.7618 3.4585 14.7618 3.4585C14.7618 3.4585 14.7618 3.4585 14.7618 3.4585C14.7618 3.4585 14.7618 3.4585 14.7619 3.4585C14.7619 3.4585 14.7619 3.4585 14.7619 3.4585C14.7619 3.4585 14.7619 3.4585 14.7619 3.4585C14.7619 3.4585 14.7619 3.4585 14.7619 3.4585C14.7619 3.4585 14.7619 3.4585 14.7619 3.4585C14.7619 3.4585 14.7619 3.4585 14.7619 3.4585C14.762 3.4585 14.762 3.4585 14.762 3.4585C14.762 3.4585 14.762 3.4585 14.762 3.4585C14.762 3.4585 14.762 3.4585 14.762 3.4585C14.762 3.4585 14.762 3.4585 14.762 3.4585C14.762 3.4585 14.762 3.4585 14.762 3.4585C14.7621 3.4585 14.7621 3.4585 14.7621 3.4585C14.7621 3.4585 14.7621 3.4585 14.7621 3.4585C14.7621 3.4585 14.7621 3.4585 14.7621 3.4585C14.7621 3.4585 14.7621 3.4585 14.7621 3.4585C14.7621 3.4585 14.7621 3.4585 14.7621 3.4585C14.7622 3.4585 14.7622 3.4585 14.7622 3.4585C14.7622 3.4585 14.7622 3.4585 14.7622 3.4585C14.7622 3.4585 14.7622 3.4585 14.7622 3.4585C14.7622 3.4585 14.7622 3.4585 14.7622 3.4585C14.7622 3.4585 14.7622 3.4585 14.7622 3.4585C14.7623 3.4585 14.7623 3.4585 14.7623 3.4585C14.7623 3.4585 14.7623 3.4585 14.7623 3.4585C14.7623 3.4585 14.7623 3.4585 14.7623 3.4585C14.7623 3.4585 14.7623 3.4585 14.7623 3.4585C14.7623 3.4585 14.7624 3.4585 14.7624 3.4585C14.7624 3.4585 14.7624 3.4585 14.7624 3.4585C14.7624 3.4585 14.7624 3.4585 14.7624 3.4585C14.7624 3.4585 14.7624 3.4585 14.7624 3.4585C14.7624 3.4585 14.7624 3.4585 14.7624 3.4585C14.7625 3.4585 14.7625 3.4585 14.7625 3.4585C14.7625 3.4585 14.7625 3.4585 14.7625 3.4585C14.7625 3.4585 14.7625 3.4585 14.7625 3.4585C14.7625 3.4585 14.7625 3.4585 14.7625 3.4585C14.7625 3.4585 14.7626 3.4585 14.7626 3.4585C14.7626 3.4585 14.7626 3.4585 14.7626 3.4585C14.7626 3.4585 14.7626 3.4585 14.7626 3.4585C14.7626 3.4585 14.7626 3.4585 14.7626 3.4585C14.7626 3.4585 14.7627 3.4585 14.7627 3.4585C14.7627 3.4585 14.7627 3.4585 14.7627 3.4585C14.7627 3.4585 14.7627 3.4585 14.7627 3.4585C14.7627 3.4585 14.7627 3.4585 14.7627 3.4585C14.7627 3.4585 14.7627 3.4585 14.7628 3.4585C14.7628 3.4585 14.7628 3.4585 14.7628 3.4585C14.7628 3.4585 14.7628 3.4585 14.7628 3.4585C14.7628 3.4585 14.7628 3.4585 14.7628 3.4585C14.7628 3.4585 14.7628 3.4585 14.7629 3.4585C14.7629 3.4585 14.7629 3.4585 14.7629 3.4585C14.7629 3.4585 14.7629 3.4585 14.7629 3.4585C14.7629 3.4585 14.7629 3.4585 14.7629 3.4585C14.7629 3.4585 14.763 3.4585 14.763 3.4585C14.763 3.4585 14.763 3.4585 14.763 3.4585C14.763 3.4585 14.763 3.4585 14.763 3.4585C14.763 3.4585 14.763 3.4585 14.763 3.4585C14.763 3.4585 14.7631 3.4585 14.7631 3.4585C14.7631 3.4585 14.7631 3.4585 14.7631 3.4585C14.7631 3.4585 14.7631 3.4585 14.7631 3.4585C14.7631 3.4585 14.7631 3.4585 14.7631 3.4585C14.7632 3.4585 14.7632 3.4585 14.7632 3.4585C14.7632 3.4585 14.7632 3.4585 14.7632 3.4585C14.7632 3.4585 14.7632 3.4585 14.7632 3.4585C14.7632 3.4585 14.7632 3.4585 14.7633 3.4585C14.7633 3.4585 14.7633 3.4585 14.7633 3.4585C14.7633 3.4585 14.7633 3.4585 14.7633 3.4585C14.7633 3.4585 14.7633 3.4585 14.7633 3.4585C14.7633 3.4585 14.7634 3.4585 14.7634 3.4585C14.7634 3.4585 14.7634 3.4585 14.7634 3.4585C14.7634 3.4585 14.7634 3.4585 14.7634 3.4585C14.7634 3.4585 14.7634 3.4585 14.7635 3.4585C14.7635 3.4585 14.7635 3.4585 14.7635 3.4585C14.7635 3.4585 14.7635 3.4585 14.7635 3.4585C14.7635 3.4585 14.7635 3.4585 14.7635 3.4585C14.7636 3.4585 14.7636 3.4585 14.7636 3.4585C14.7636 3.4585 14.7636 3.4585 14.7636 3.4585C14.7636 3.4585 14.7636 3.4585 14.7636 3.4585C14.7636 3.4585 14.7637 3.4585 14.7637 3.4585C14.7637 3.4585 14.7637 3.4585 14.7637 3.4585C14.7637 3.4585 14.7637 3.4585 14.7637 3.4585C14.7637 3.4585 14.7637 3.4585 14.7638 3.4585C14.7638 3.4585 14.7638 3.4585 14.7638 3.4585C14.7638 3.4585 14.7638 3.4585 14.7638 3.4585C14.7638 3.4585 14.7638 3.4585 14.7638 3.4585C14.7639 3.4585 14.7639 3.4585 14.7639 3.4585C14.7639 3.4585 14.7639 3.4585 14.7639 3.4585C14.7639 3.4585 14.7639 3.4585 14.7639 3.4585C14.764 3.4585 14.764 3.4585 14.764 3.4585C14.764 3.4585 14.764 3.4585 14.764 3.4585C14.764 3.4585 14.764 3.4585 14.764 3.4585C14.7641 3.4585 14.7641 3.4585 14.7641 3.4585C14.7641 3.4585 14.7641 3.4585 14.7641 3.4585C14.7641 3.4585 14.7641 3.4585 14.7641 3.4585C14.7641 3.4585 14.7642 3.4585 14.7642 3.4585C14.7642 3.4585 14.7642 3.4585 14.7642 3.4585C14.7642 3.4585 14.7642 3.4585 14.7642 3.4585C14.7642 3.4585 14.7643 3.4585 14.7643 3.4585C14.7643 3.4585 14.7643 3.4585 14.7643 3.4585C14.7643 3.4585 14.7643 3.4585 14.7643 3.4585C14.7644 3.4585 14.7644 3.4585 14.7644 3.4585C14.7644 3.4585 14.7644 3.4585 14.7644 3.4585C14.7644 3.4585 14.7644 3.4585 14.7644 3.4585C14.7645 3.4585 14.7645 3.4585 14.7645 3.4585C14.7645 3.4585 14.7645 3.4585 14.7645 3.4585C14.7645 3.4585 14.7645 3.4585 14.7645 3.4585C14.7646 3.4585 14.7646 3.4585 14.7646 3.4585C14.7646 3.4585 14.7646 3.4585 14.7646 3.4585C14.7646 3.4585 14.7646 3.4585 14.7647 3.4585C14.7647 3.4585 14.7647 3.4585 14.7647 3.4585C14.7647 3.4585 14.7647 3.4585 14.7647 3.4585C14.7647 3.4585 14.7648 3.4585 14.7648 3.4585C14.7648 3.4585 14.7648 3.4585 14.7648 3.4585C14.7648 3.4585 14.7648 3.4585 14.7648 3.4585C14.7648 3.4585 14.7649 3.4585 14.7649 3.4585C14.7649 3.4585 14.7649 3.4585 14.7649 3.4585C14.7649 3.4585 14.7649 3.4585 14.7649 3.4585C14.765 3.4585 14.765 3.4585 14.765 3.4585C14.765 3.4585 14.765 3.4585 14.765 3.4585C14.765 3.4585 14.765 3.4585 14.7651 3.4585C14.7651 3.4585 14.7651 3.4585 14.7651 3.4585C14.7651 3.4585 14.7651 3.4585 14.7651 3.4585C14.7652 3.4585 14.7652 3.4585 14.7652 3.4585C14.7652 3.4585 14.7652 3.4585 14.7652 3.4585C14.7652 3.4585 14.7652 3.4585 14.7653 3.4585C14.7653 3.4585 14.7653 3.4585 14.7653 3.4585C14.7653 3.4585 14.7653 3.4585 14.7653 3.4585C14.7653 3.4585 14.7654 3.4585 14.7654 3.4585C14.7654 3.4585 14.7654 3.4585 14.7654 3.4585C14.7654 3.4585 14.7654 3.4585 14.7655 3.4585C14.7655 3.4585 14.7655 3.4585 14.7655 3.4585C14.7655 3.4585 14.7655 3.4585 14.7655 3.4585C14.7655 3.4585 14.7656 3.4585 14.7656 3.4585C14.7656 3.4585 14.7656 3.4585 14.7656 3.4585C14.7656 3.4585 14.7656 3.4585 14.7657 3.4585C14.7657 3.4585 14.7657 3.4585 14.7657 3.4585C14.7657 3.4585 14.7657 3.4585 14.7657 3.4585C14.7658 3.4585 14.7658 3.4585 14.7658 3.4585C14.7658 3.4585 14.7658 3.4585 14.7658 3.4585C14.7658 3.4585 14.7658 3.4585 14.7659 3.4585C14.7659 3.4585 14.7659 3.4585 14.7659 3.4585C14.7659 3.4585 14.7659 3.4585 14.7659 3.4585C14.766 3.4585 14.766 3.4585 14.766 3.4585C14.766 3.4585 14.766 3.4585 14.766 3.4585C14.766 3.4585 14.7661 3.4585 14.7661 3.4585C14.7661 3.4585 14.7661 3.4585 14.7661 3.4585C14.7661 3.4585 14.7661 3.4585 14.7662 3.4585C14.7662 3.4585 14.7662 3.4585 14.7662 3.4585C14.7662 3.4585 14.7662 3.4585 14.7663 3.4585C14.7663 3.4585 14.7663 3.4585 14.7663 3.4585C14.7663 3.4585 14.7663 3.4585 14.7663 3.4585C14.7664 3.4585 14.7664 3.4585 14.7664 3.4585C14.7664 3.4585 14.7664 3.4585 14.7664 3.4585C14.7664 3.4585 14.7665 3.4585 14.7665 3.4585C14.7665 3.4585 14.7665 3.4585 14.7665 3.4585C14.7665 3.4585 14.7666 3.4585 14.7666 3.4585C14.7666 3.4585 14.7666 3.4585 14.7666 3.4585C14.7666 3.4585 14.7666 3.4585 14.7667 3.4585C14.7667 3.4585 14.7667 3.4585 14.7667 3.4585C14.7667 3.4585 14.7667 3.4585 14.7667 3.4585C14.7668 3.4585 14.7668 3.4585 14.7668 3.4585C14.7668 3.4585 14.7668 3.4585 14.7668 3.4585C14.7669 3.4585 14.7669 3.4585 14.7669 3.4585C14.7669 3.4585 14.7669 3.4585 14.7669 3.4585C14.767 3.4585 14.767 3.4585 14.767 3.4585C14.767 3.4585 14.767 3.4585 14.767 3.4585C14.767 3.4585 14.7671 3.4585 14.7671 3.4585C14.7671 3.4585 14.7671 3.4585 14.7671 3.4585C14.7671 3.4585 14.7672 3.4585 14.7672 3.4585C14.7672 3.4585 14.7672 3.4585 14.7672 3.4585C14.7672 3.4585 14.7673 3.4585 14.7673 3.4585C14.7673 3.4585 14.7673 3.4585 14.7673 3.4585C14.7673 3.4585 14.7674 3.4585 14.7674 3.4585C14.7674 3.4585 14.7674 3.4585 14.7674 3.4585C14.7674 3.4585 14.7675 3.4585 14.7675 3.4585C14.7675 3.4585 14.7675 3.4585 14.7675 3.4585C14.7675 3.4585 14.7676 3.4585 14.7676 3.4585C14.7676 3.4585 14.7676 3.4585 14.7676 3.4585C14.7676 3.4585 14.7677 3.4585 14.7677 3.4585C14.7677 3.4585 14.7677 3.4585 14.7677 3.4585C14.7677 3.4585 14.7678 3.4585 14.7678 3.4585C14.7678 3.4585 14.7678 3.4585 14.7678 3.4585C14.7678 3.4585 14.7679 3.4585 14.7679 3.4585C14.7679 3.4585 14.7679 3.4585 14.7679 3.4585C14.7679 3.4585 14.768 3.4585 14.768 3.4585C14.768 3.4585 14.768 3.4585 14.768 3.4585C14.7681 3.4585 14.7681 3.4585 14.7681 3.4585C14.7681 3.4585 14.7681 3.4585 14.7681 3.4585C14.7682 3.4585 14.7682 3.4585 14.7682 3.4585C14.7682 3.4585 14.7682 3.4585 14.7682 3.4585C14.7683 3.4585 14.7683 3.4585 14.7683 3.4585C14.7683 3.4585 14.7683 3.4585 14.7684 3.4585C14.7684 3.4585 14.7684 3.4585 14.7684 3.4585C14.7684 3.4585 14.7684 3.4585 14.7685 3.4585C14.7685 3.4585 14.7685 3.4585 14.7685 3.4585C14.7685 3.4585 14.7685 3.4585 14.7686 3.4585C14.7686 3.4585 14.7686 3.4585 14.7686 3.4585C14.7686 3.4585 14.7687 3.4585 14.7687 3.4585C14.7687 3.4585 14.7687 3.4585 14.7687 3.4585C14.7688 3.4585 14.7688 3.4585 14.7688 3.4585C14.7688 3.4585 14.7688 3.4585 14.7688 3.4585C14.7689 3.4585 14.7689 3.4585 14.7689 3.4585C14.7689 3.4585 14.7689 3.4585 14.769 3.4585C14.769 3.4585 14.769 3.4585 14.769 3.4585C14.769 3.4585 14.7691 3.4585 14.7691 3.4585C14.7691 3.4585 14.7691 3.4585 14.7691 3.4585C14.7691 3.4585 14.7692 3.4585 14.7692 3.4585C14.7692 3.4585 14.7692 3.4585 14.7692 3.4585C14.7693 3.4585 14.7693 3.4585 14.7693 3.4585C14.7693 3.4585 14.7693 3.4585 14.7694 3.4585C14.7694 3.4585 14.7694 3.4585 14.7694 3.4585C14.7694 3.4585 14.7695 3.4585 14.7695 3.4585C14.7695 3.4585 14.7695 3.4585 14.7695 3.4585C14.7696 3.4585 14.7696 3.4585 14.7696 3.4585C14.7696 3.4585 14.7696 3.4585 14.7697 3.4585C14.7697 3.4585 14.7697 3.4585 14.7697 3.4585C14.7697 3.4585 14.7697 3.4585 14.7698 3.4585C14.7698 3.4585 14.7698 3.4585 14.7698 3.4585C14.7698 3.4585 14.7699 3.4585 14.7699 3.4585C14.7699 3.4585 14.7699 3.4585 14.7699 3.4585C14.77 3.4585 14.77 3.4585 14.77 3.4585C14.77 3.4585 14.7701 3.4585 14.7701 3.4585C14.7701 3.4585 14.7701 3.4585 14.7701 3.4585C14.7702 3.4585 14.7702 3.4585 14.7702 3.4585C14.7702 3.4585 14.7702 3.4585 14.7703 3.4585C14.7703 3.4585 14.7703 3.4585 14.7703 3.4585C14.7703 3.4585 14.7704 3.4585 14.7704 3.4585C14.7704 3.4585 14.7704 3.4585 14.7704 3.4585C14.7705 3.4585 14.7705 3.4585 14.7705 3.4585C14.7705 3.4585 14.7705 3.4585 14.7706 3.4585C14.7706 3.4585 14.7706 3.4585 14.7706 3.4585C14.7707 3.4585 14.7707 3.4585 14.7707 3.4585C14.7707 3.4585 14.7707 3.4585 14.7708 3.4585C14.7708 3.4585 14.7708 3.4585 14.7708 3.4585C14.7708 3.4585 14.7709 3.4585 14.7709 3.4585C14.7709 3.4585 14.7709 3.4585 14.771 3.4585C14.771 3.4585 14.771 3.4585 14.771 3.4585C14.771 3.4585 14.7711 3.4585 14.7711 3.4585C14.7711 3.4585 14.7711 3.4585 14.7711 3.4585C14.7712 3.4585 14.7712 3.4585 14.7712 3.4585C14.7712 3.4585 14.7713 3.4585 14.7713 3.4585C14.7713 3.4585 14.7713 3.4585 14.7713 3.4585C14.7714 3.4585 14.7714 3.4585 14.7714 3.4585C14.7714 3.4585 14.7715 3.4585 14.7715 3.4585C14.7715 3.4585 14.7715 3.4585 14.7715 3.4585C14.7716 3.4585 14.7716 3.4585 14.7716 3.4585C14.7716 3.4585 14.7717 3.4585 14.7717 3.4585C14.7717 3.4585 14.7717 3.4585 14.7717 3.4585C14.7718 3.4585 14.7718 3.4585 14.7718 3.4585C14.7718 3.4585 14.7719 3.4585 14.7719 3.4585V1.4585V-0.541504C14.7719 -0.541504 14.7718 -0.541504 14.7718 -0.541504C14.7718 -0.541504 14.7718 -0.541504 14.7717 -0.541504C14.7717 -0.541504 14.7717 -0.541504 14.7717 -0.541504C14.7717 -0.541504 14.7716 -0.541504 14.7716 -0.541504C14.7716 -0.541504 14.7716 -0.541504 14.7715 -0.541504C14.7715 -0.541504 14.7715 -0.541504 14.7715 -0.541504C14.7715 -0.541504 14.7714 -0.541504 14.7714 -0.541504C14.7714 -0.541504 14.7714 -0.541504 14.7713 -0.541504C14.7713 -0.541504 14.7713 -0.541504 14.7713 -0.541504C14.7713 -0.541504 14.7712 -0.541504 14.7712 -0.541504C14.7712 -0.541504 14.7712 -0.541504 14.7711 -0.541504C14.7711 -0.541504 14.7711 -0.541504 14.7711 -0.541504C14.7711 -0.541504 14.771 -0.541504 14.771 -0.541504C14.771 -0.541504 14.771 -0.541504 14.771 -0.541504C14.7709 -0.541504 14.7709 -0.541504 14.7709 -0.541504C14.7709 -0.541504 14.7708 -0.541504 14.7708 -0.541504C14.7708 -0.541504 14.7708 -0.541504 14.7708 -0.541504C14.7707 -0.541504 14.7707 -0.541504 14.7707 -0.541504C14.7707 -0.541504 14.7707 -0.541504 14.7706 -0.541504C14.7706 -0.541504 14.7706 -0.541504 14.7706 -0.541504C14.7705 -0.541504 14.7705 -0.541504 14.7705 -0.541504C14.7705 -0.541504 14.7705 -0.541504 14.7704 -0.541504C14.7704 -0.541504 14.7704 -0.541504 14.7704 -0.541504C14.7704 -0.541504 14.7703 -0.541504 14.7703 -0.541504C14.7703 -0.541504 14.7703 -0.541504 14.7703 -0.541504C14.7702 -0.541504 14.7702 -0.541504 14.7702 -0.541504C14.7702 -0.541504 14.7702 -0.541504 14.7701 -0.541504C14.7701 -0.541504 14.7701 -0.541504 14.7701 -0.541504C14.7701 -0.541504 14.77 -0.541504 14.77 -0.541504C14.77 -0.541504 14.77 -0.541504 14.7699 -0.541504C14.7699 -0.541504 14.7699 -0.541504 14.7699 -0.541504C14.7699 -0.541504 14.7698 -0.541504 14.7698 -0.541504C14.7698 -0.541504 14.7698 -0.541504 14.7698 -0.541504C14.7697 -0.541504 14.7697 -0.541504 14.7697 -0.541504C14.7697 -0.541504 14.7697 -0.541504 14.7697 -0.541504C14.7696 -0.541504 14.7696 -0.541504 14.7696 -0.541504C14.7696 -0.541504 14.7696 -0.541504 14.7695 -0.541504C14.7695 -0.541504 14.7695 -0.541504 14.7695 -0.541504C14.7695 -0.541504 14.7694 -0.541504 14.7694 -0.541504C14.7694 -0.541504 14.7694 -0.541504 14.7694 -0.541504C14.7693 -0.541504 14.7693 -0.541504 14.7693 -0.541504C14.7693 -0.541504 14.7693 -0.541504 14.7692 -0.541504C14.7692 -0.541504 14.7692 -0.541504 14.7692 -0.541504C14.7692 -0.541504 14.7691 -0.541504 14.7691 -0.541504C14.7691 -0.541504 14.7691 -0.541504 14.7691 -0.541504C14.7691 -0.541504 14.769 -0.541504 14.769 -0.541504C14.769 -0.541504 14.769 -0.541504 14.769 -0.541504C14.7689 -0.541504 14.7689 -0.541504 14.7689 -0.541504C14.7689 -0.541504 14.7689 -0.541504 14.7688 -0.541504C14.7688 -0.541504 14.7688 -0.541504 14.7688 -0.541504C14.7688 -0.541504 14.7688 -0.541504 14.7687 -0.541504C14.7687 -0.541504 14.7687 -0.541504 14.7687 -0.541504C14.7687 -0.541504 14.7686 -0.541504 14.7686 -0.541504C14.7686 -0.541504 14.7686 -0.541504 14.7686 -0.541504C14.7685 -0.541504 14.7685 -0.541504 14.7685 -0.541504C14.7685 -0.541504 14.7685 -0.541504 14.7685 -0.541504C14.7684 -0.541504 14.7684 -0.541504 14.7684 -0.541504C14.7684 -0.541504 14.7684 -0.541504 14.7684 -0.541504C14.7683 -0.541504 14.7683 -0.541504 14.7683 -0.541504C14.7683 -0.541504 14.7683 -0.541504 14.7682 -0.541504C14.7682 -0.541504 14.7682 -0.541504 14.7682 -0.541504C14.7682 -0.541504 14.7682 -0.541504 14.7681 -0.541504C14.7681 -0.541504 14.7681 -0.541504 14.7681 -0.541504C14.7681 -0.541504 14.7681 -0.541504 14.768 -0.541504C14.768 -0.541504 14.768 -0.541504 14.768 -0.541504C14.768 -0.541504 14.7679 -0.541504 14.7679 -0.541504C14.7679 -0.541504 14.7679 -0.541504 14.7679 -0.541504C14.7679 -0.541504 14.7678 -0.541504 14.7678 -0.541504C14.7678 -0.541504 14.7678 -0.541504 14.7678 -0.541504C14.7678 -0.541504 14.7677 -0.541504 14.7677 -0.541504C14.7677 -0.541504 14.7677 -0.541504 14.7677 -0.541504C14.7677 -0.541504 14.7676 -0.541504 14.7676 -0.541504C14.7676 -0.541504 14.7676 -0.541504 14.7676 -0.541504C14.7676 -0.541504 14.7675 -0.541504 14.7675 -0.541504C14.7675 -0.541504 14.7675 -0.541504 14.7675 -0.541504C14.7675 -0.541504 14.7674 -0.541504 14.7674 -0.541504C14.7674 -0.541504 14.7674 -0.541504 14.7674 -0.541504C14.7674 -0.541504 14.7673 -0.541504 14.7673 -0.541504C14.7673 -0.541504 14.7673 -0.541504 14.7673 -0.541504C14.7673 -0.541504 14.7672 -0.541504 14.7672 -0.541504C14.7672 -0.541504 14.7672 -0.541504 14.7672 -0.541504C14.7672 -0.541504 14.7671 -0.541504 14.7671 -0.541504C14.7671 -0.541504 14.7671 -0.541504 14.7671 -0.541504C14.7671 -0.541504 14.767 -0.541504 14.767 -0.541504C14.767 -0.541504 14.767 -0.541504 14.767 -0.541504C14.767 -0.541504 14.767 -0.541504 14.7669 -0.541504C14.7669 -0.541504 14.7669 -0.541504 14.7669 -0.541504C14.7669 -0.541504 14.7669 -0.541504 14.7668 -0.541504C14.7668 -0.541504 14.7668 -0.541504 14.7668 -0.541504C14.7668 -0.541504 14.7668 -0.541504 14.7667 -0.541504C14.7667 -0.541504 14.7667 -0.541504 14.7667 -0.541504C14.7667 -0.541504 14.7667 -0.541504 14.7667 -0.541504C14.7666 -0.541504 14.7666 -0.541504 14.7666 -0.541504C14.7666 -0.541504 14.7666 -0.541504 14.7666 -0.541504C14.7666 -0.541504 14.7665 -0.541504 14.7665 -0.541504C14.7665 -0.541504 14.7665 -0.541504 14.7665 -0.541504C14.7665 -0.541504 14.7664 -0.541504 14.7664 -0.541504C14.7664 -0.541504 14.7664 -0.541504 14.7664 -0.541504C14.7664 -0.541504 14.7664 -0.541504 14.7663 -0.541504C14.7663 -0.541504 14.7663 -0.541504 14.7663 -0.541504C14.7663 -0.541504 14.7663 -0.541504 14.7663 -0.541504C14.7662 -0.541504 14.7662 -0.541504 14.7662 -0.541504C14.7662 -0.541504 14.7662 -0.541504 14.7662 -0.541504C14.7661 -0.541504 14.7661 -0.541504 14.7661 -0.541504C14.7661 -0.541504 14.7661 -0.541504 14.7661 -0.541504C14.7661 -0.541504 14.766 -0.541504 14.766 -0.541504C14.766 -0.541504 14.766 -0.541504 14.766 -0.541504C14.766 -0.541504 14.766 -0.541504 14.7659 -0.541504C14.7659 -0.541504 14.7659 -0.541504 14.7659 -0.541504C14.7659 -0.541504 14.7659 -0.541504 14.7659 -0.541504C14.7658 -0.541504 14.7658 -0.541504 14.7658 -0.541504C14.7658 -0.541504 14.7658 -0.541504 14.7658 -0.541504C14.7658 -0.541504 14.7658 -0.541504 14.7657 -0.541504C14.7657 -0.541504 14.7657 -0.541504 14.7657 -0.541504C14.7657 -0.541504 14.7657 -0.541504 14.7657 -0.541504C14.7656 -0.541504 14.7656 -0.541504 14.7656 -0.541504C14.7656 -0.541504 14.7656 -0.541504 14.7656 -0.541504C14.7656 -0.541504 14.7655 -0.541504 14.7655 -0.541504C14.7655 -0.541504 14.7655 -0.541504 14.7655 -0.541504C14.7655 -0.541504 14.7655 -0.541504 14.7655 -0.541504C14.7654 -0.541504 14.7654 -0.541504 14.7654 -0.541504C14.7654 -0.541504 14.7654 -0.541504 14.7654 -0.541504C14.7654 -0.541504 14.7653 -0.541504 14.7653 -0.541504C14.7653 -0.541504 14.7653 -0.541504 14.7653 -0.541504C14.7653 -0.541504 14.7653 -0.541504 14.7653 -0.541504C14.7652 -0.541504 14.7652 -0.541504 14.7652 -0.541504C14.7652 -0.541504 14.7652 -0.541504 14.7652 -0.541504C14.7652 -0.541504 14.7652 -0.541504 14.7651 -0.541504C14.7651 -0.541504 14.7651 -0.541504 14.7651 -0.541504C14.7651 -0.541504 14.7651 -0.541504 14.7651 -0.541504C14.765 -0.541504 14.765 -0.541504 14.765 -0.541504C14.765 -0.541504 14.765 -0.541504 14.765 -0.541504C14.765 -0.541504 14.765 -0.541504 14.7649 -0.541504C14.7649 -0.541504 14.7649 -0.541504 14.7649 -0.541504C14.7649 -0.541504 14.7649 -0.541504 14.7649 -0.541504C14.7649 -0.541504 14.7648 -0.541504 14.7648 -0.541504C14.7648 -0.541504 14.7648 -0.541504 14.7648 -0.541504C14.7648 -0.541504 14.7648 -0.541504 14.7648 -0.541504C14.7648 -0.541504 14.7647 -0.541504 14.7647 -0.541504C14.7647 -0.541504 14.7647 -0.541504 14.7647 -0.541504C14.7647 -0.541504 14.7647 -0.541504 14.7647 -0.541504C14.7646 -0.541504 14.7646 -0.541504 14.7646 -0.541504C14.7646 -0.541504 14.7646 -0.541504 14.7646 -0.541504C14.7646 -0.541504 14.7646 -0.541504 14.7645 -0.541504C14.7645 -0.541504 14.7645 -0.541504 14.7645 -0.541504C14.7645 -0.541504 14.7645 -0.541504 14.7645 -0.541504C14.7645 -0.541504 14.7645 -0.541504 14.7644 -0.541504C14.7644 -0.541504 14.7644 -0.541504 14.7644 -0.541504C14.7644 -0.541504 14.7644 -0.541504 14.7644 -0.541504C14.7644 -0.541504 14.7644 -0.541504 14.7643 -0.541504C14.7643 -0.541504 14.7643 -0.541504 14.7643 -0.541504C14.7643 -0.541504 14.7643 -0.541504 14.7643 -0.541504C14.7643 -0.541504 14.7642 -0.541504 14.7642 -0.541504C14.7642 -0.541504 14.7642 -0.541504 14.7642 -0.541504C14.7642 -0.541504 14.7642 -0.541504 14.7642 -0.541504C14.7642 -0.541504 14.7641 -0.541504 14.7641 -0.541504C14.7641 -0.541504 14.7641 -0.541504 14.7641 -0.541504C14.7641 -0.541504 14.7641 -0.541504 14.7641 -0.541504C14.7641 -0.541504 14.7641 -0.541504 14.764 -0.541504C14.764 -0.541504 14.764 -0.541504 14.764 -0.541504C14.764 -0.541504 14.764 -0.541504 14.764 -0.541504C14.764 -0.541504 14.764 -0.541504 14.7639 -0.541504C14.7639 -0.541504 14.7639 -0.541504 14.7639 -0.541504C14.7639 -0.541504 14.7639 -0.541504 14.7639 -0.541504C14.7639 -0.541504 14.7639 -0.541504 14.7638 -0.541504C14.7638 -0.541504 14.7638 -0.541504 14.7638 -0.541504C14.7638 -0.541504 14.7638 -0.541504 14.7638 -0.541504C14.7638 -0.541504 14.7638 -0.541504 14.7638 -0.541504C14.7637 -0.541504 14.7637 -0.541504 14.7637 -0.541504C14.7637 -0.541504 14.7637 -0.541504 14.7637 -0.541504C14.7637 -0.541504 14.7637 -0.541504 14.7637 -0.541504C14.7637 -0.541504 14.7636 -0.541504 14.7636 -0.541504C14.7636 -0.541504 14.7636 -0.541504 14.7636 -0.541504C14.7636 -0.541504 14.7636 -0.541504 14.7636 -0.541504C14.7636 -0.541504 14.7636 -0.541504 14.7635 -0.541504C14.7635 -0.541504 14.7635 -0.541504 14.7635 -0.541504C14.7635 -0.541504 14.7635 -0.541504 14.7635 -0.541504C14.7635 -0.541504 14.7635 -0.541504 14.7635 -0.541504C14.7634 -0.541504 14.7634 -0.541504 14.7634 -0.541504C14.7634 -0.541504 14.7634 -0.541504 14.7634 -0.541504C14.7634 -0.541504 14.7634 -0.541504 14.7634 -0.541504C14.7634 -0.541504 14.7633 -0.541504 14.7633 -0.541504C14.7633 -0.541504 14.7633 -0.541504 14.7633 -0.541504C14.7633 -0.541504 14.7633 -0.541504 14.7633 -0.541504C14.7633 -0.541504 14.7633 -0.541504 14.7633 -0.541504C14.7632 -0.541504 14.7632 -0.541504 14.7632 -0.541504C14.7632 -0.541504 14.7632 -0.541504 14.7632 -0.541504C14.7632 -0.541504 14.7632 -0.541504 14.7632 -0.541504C14.7632 -0.541504 14.7632 -0.541504 14.7631 -0.541504C14.7631 -0.541504 14.7631 -0.541504 14.7631 -0.541504C14.7631 -0.541504 14.7631 -0.541504 14.7631 -0.541504C14.7631 -0.541504 14.7631 -0.541504 14.7631 -0.541504C14.7631 -0.541504 14.763 -0.541504 14.763 -0.541504C14.763 -0.541504 14.763 -0.541504 14.763 -0.541504C14.763 -0.541504 14.763 -0.541504 14.763 -0.541504C14.763 -0.541504 14.763 -0.541504 14.763 -0.541504C14.763 -0.541504 14.7629 -0.541504 14.7629 -0.541504C14.7629 -0.541504 14.7629 -0.541504 14.7629 -0.541504C14.7629 -0.541504 14.7629 -0.541504 14.7629 -0.541504C14.7629 -0.541504 14.7629 -0.541504 14.7629 -0.541504C14.7628 -0.541504 14.7628 -0.541504 14.7628 -0.541504C14.7628 -0.541504 14.7628 -0.541504 14.7628 -0.541504C14.7628 -0.541504 14.7628 -0.541504 14.7628 -0.541504C14.7628 -0.541504 14.7628 -0.541504 14.7628 -0.541504C14.7627 -0.541504 14.7627 -0.541504 14.7627 -0.541504C14.7627 -0.541504 14.7627 -0.541504 14.7627 -0.541504C14.7627 -0.541504 14.7627 -0.541504 14.7627 -0.541504C14.7627 -0.541504 14.7627 -0.541504 14.7627 -0.541504C14.7627 -0.541504 14.7626 -0.541504 14.7626 -0.541504C14.7626 -0.541504 14.7626 -0.541504 14.7626 -0.541504C14.7626 -0.541504 14.7626 -0.541504 14.7626 -0.541504C14.7626 -0.541504 14.7626 -0.541504 14.7626 -0.541504C14.7626 -0.541504 14.7625 -0.541504 14.7625 -0.541504C14.7625 -0.541504 14.7625 -0.541504 14.7625 -0.541504C14.7625 -0.541504 14.7625 -0.541504 14.7625 -0.541504C14.7625 -0.541504 14.7625 -0.541504 14.7625 -0.541504C14.7625 -0.541504 14.7625 -0.541504 14.7624 -0.541504C14.7624 -0.541504 14.7624 -0.541504 14.7624 -0.541504C14.7624 -0.541504 14.7624 -0.541504 14.7624 -0.541504C14.7624 -0.541504 14.7624 -0.541504 14.7624 -0.541504C14.7624 -0.541504 14.7624 -0.541504 14.7624 -0.541504C14.7624 -0.541504 14.7623 -0.541504 14.7623 -0.541504C14.7623 -0.541504 14.7623 -0.541504 14.7623 -0.541504C14.7623 -0.541504 14.7623 -0.541504 14.7623 -0.541504C14.7623 -0.541504 14.7623 -0.541504 14.7623 -0.541504C14.7623 -0.541504 14.7623 -0.541504 14.7622 -0.541504C14.7622 -0.541504 14.7622 -0.541504 14.7622 -0.541504C14.7622 -0.541504 14.7622 -0.541504 14.7622 -0.541504C14.7622 -0.541504 14.7622 -0.541504 14.7622 -0.541504C14.7622 -0.541504 14.7622 -0.541504 14.7622 -0.541504C14.7622 -0.541504 14.7622 -0.541504 14.7621 -0.541504C14.7621 -0.541504 14.7621 -0.541504 14.7621 -0.541504C14.7621 -0.541504 14.7621 -0.541504 14.7621 -0.541504C14.7621 -0.541504 14.7621 -0.541504 14.7621 -0.541504C14.7621 -0.541504 14.7621 -0.541504 14.7621 -0.541504C14.7621 -0.541504 14.7621 -0.541504 14.762 -0.541504C14.762 -0.541504 14.762 -0.541504 14.762 -0.541504C14.762 -0.541504 14.762 -0.541504 14.762 -0.541504C14.762 -0.541504 14.762 -0.541504 14.762 -0.541504C14.762 -0.541504 14.762 -0.541504 14.762 -0.541504C14.762 -0.541504 14.762 -0.541504 14.7619 -0.541504C14.7619 -0.541504 14.7619 -0.541504 14.7619 -0.541504C14.7619 -0.541504 14.7619 -0.541504 14.7619 -0.541504C14.7619 -0.541504 14.7619 -0.541504 14.7619 -0.541504C14.7619 -0.541504 14.7619 -0.541504 14.7619 -0.541504C14.7619 -0.541504 14.7619 -0.541504 14.7619 -0.541504C14.7618 -0.541504 14.7618 -0.541504 14.7618 -0.541504C14.7618 -0.541504 14.7618 -0.541504 14.7618 -0.541504C14.7618 -0.541504 14.7618 -0.541504 14.7618 -0.541504C14.7618 -0.541504 14.7618 -0.541504 14.7618 -0.541504C14.7618 -0.541504 14.7618 -0.541504 14.7618 -0.541504C14.7618 -0.541504 14.7618 -0.541504 14.7617 -0.541504C14.7617 -0.541504 14.7617 -0.541504 14.7617 -0.541504C14.7617 -0.541504 14.7617 -0.541504 14.7617 -0.541504C14.7617 -0.541504 14.7617 -0.541504 14.7617 -0.541504C14.7617 -0.541504 14.7617 -0.541504 14.7617 -0.541504C14.7617 -0.541504 14.7617 -0.541504 14.7617 -0.541504C14.7617 -0.541504 14.7616 -0.541504 14.7616 -0.541504C14.7616 -0.541504 14.7616 -0.541504 14.7616 -0.541504C14.7616 -0.541504 14.7616 -0.541504 14.7616 -0.541504C14.7616 -0.541504 14.7616 -0.541504 14.7616 -0.541504C14.7616 -0.541504 14.7616 -0.541504 14.7616 -0.541504C14.7616 -0.541504 14.7616 -0.541504 14.7616 -0.541504C14.7616 -0.541504 14.7615 -0.541504 14.7615 -0.541504C14.7615 -0.541504 14.7615 -0.541504 14.7615 -0.541504C14.7615 -0.541504 14.7615 -0.541504 14.7615 -0.541504C14.7615 -0.541504 14.7615 -0.541504 14.7615 -0.541504C14.7615 -0.541504 14.7615 -0.541504 14.7615 -0.541504C14.7615 -0.541504 14.7615 -0.541504 14.7615 -0.541504C14.7615 -0.541504 14.7615 -0.541504 14.7614 -0.541504C14.7614 -0.541504 14.7614 -0.541504 14.7614 -0.541504C14.7614 -0.541504 14.7614 -0.541504 14.7614 -0.541504C14.7614 -0.541504 14.7614 -0.541504 14.7614 -0.541504C14.7614 -0.541504 14.7614 -0.541504 14.7614 -0.541504C14.7614 -0.541504 14.7614 -0.541504 14.7614 -0.541504C14.7614 -0.541504 14.7614 -0.541504 14.7614 -0.541504C14.7614 -0.541504 14.7613 -0.541504 14.7613 -0.541504C14.7613 -0.541504 14.7613 -0.541504 14.7613 -0.541504C14.7613 -0.541504 14.7613 -0.541504 14.7613 -0.541504C14.7613 -0.541504 14.7613 -0.541504 14.7613 -0.541504C14.7613 -0.541504 14.7613 -0.541504 14.7613 -0.541504C14.7613 -0.541504 14.7613 -0.541504 14.7613 -0.541504C14.7613 -0.541504 14.7613 -0.541504 14.7613 -0.541504C14.7613 -0.541504 14.7613 -0.541504 14.7612 -0.541504C14.7612 -0.541504 14.7612 -0.541504 14.7612 -0.541504C14.7612 -0.541504 14.7612 -0.541504 14.7612 -0.541504C14.7612 -0.541504 14.7612 -0.541504 14.7612 -0.541504C14.7612 -0.541504 14.7612 -0.541504 14.7612 -0.541504C14.7612 -0.541504 14.7612 -0.541504 14.7612 -0.541504C14.7612 -0.541504 14.7612 -0.541504 14.7612 -0.541504C14.7612 -0.541504 14.7612 -0.541504 14.7612 -0.541504C14.7612 -0.541504 14.7611 -0.541504 14.7611 -0.541504C14.7611 -0.541504 14.7611 -0.541504 14.7611 -0.541504C14.7611 -0.541504 14.7611 -0.541504 14.7611 -0.541504C14.7611 -0.541504 14.7611 -0.541504 14.7611 -0.541504C14.7611 -0.541504 14.7611 -0.541504 14.7611 -0.541504C14.7611 -0.541504 14.7611 -0.541504 14.7611 -0.541504C14.7611 -0.541504 14.7611 -0.541504 14.7611 -0.541504C14.7611 -0.541504 14.7611 -0.541504 14.7611 -0.541504C14.7611 -0.541504 14.761 -0.541504 14.761 -0.541504C14.761 -0.541504 14.761 -0.541504 14.761 -0.541504C14.761 -0.541504 14.761 -0.541504 14.761 -0.541504C14.761 -0.541504 14.761 -0.541504 14.761 -0.541504C14.761 -0.541504 14.761 -0.541504 14.761 -0.541504C14.761 -0.541504 14.761 -0.541504 14.761 -0.541504C14.761 -0.541504 14.761 -0.541504 14.761 -0.541504C14.761 -0.541504 14.761 -0.541504 14.761 -0.541504C14.761 -0.541504 14.761 -0.541504 14.761 -0.541504C14.761 -0.541504 14.7609 -0.541504 14.7609 -0.541504C14.7609 -0.541504 14.7609 -0.541504 14.7609 -0.541504C14.7609 -0.541504 14.7609 -0.541504 14.7609 -0.541504C14.7609 -0.541504 14.7609 -0.541504 14.7609 -0.541504C14.7609 -0.541504 14.7609 -0.541504 14.7609 -0.541504C14.7609 -0.541504 14.7609 -0.541504 14.7609 -0.541504C14.7609 -0.541504 14.7609 -0.541504 14.7609 -0.541504C14.7609 -0.541504 14.7609 -0.541504 14.7609 -0.541504C14.7609 -0.541504 14.7609 -0.541504 14.7609 -0.541504C14.7609 -0.541504 14.7609 -0.541504 14.7609 -0.541504C14.7608 -0.541504 14.7608 -0.541504 14.7608 -0.541504C14.7608 -0.541504 14.7608 -0.541504 14.7608 -0.541504C14.7608 -0.541504 14.7608 -0.541504 14.7608 -0.541504C14.7608 -0.541504 14.7608 -0.541504 14.7608 -0.541504C14.7608 -0.541504 14.7608 -0.541504 14.7608 -0.541504C14.7608 -0.541504 14.7608 -0.541504 14.7608 -0.541504C14.7608 -0.541504 14.7608 -0.541504 14.7608 -0.541504C14.7608 -0.541504 14.7608 -0.541504 14.7608 -0.541504C14.7608 -0.541504 14.7608 -0.541504 14.7608 -0.541504C14.7608 -0.541504 14.7608 -0.541504 14.7608 -0.541504C14.7608 -0.541504 14.7608 -0.541504 14.7607 -0.541504C14.7607 -0.541504 14.7607 -0.541504 14.7607 -0.541504C14.7607 -0.541504 14.7607 -0.541504 14.7607 -0.541504C14.7607 -0.541504 14.7607 -0.541504 14.7607 -0.541504C14.7607 -0.541504 14.7607 -0.541504 14.7607 -0.541504C14.7607 -0.541504 14.7607 -0.541504 14.7607 -0.541504C14.7607 -0.541504 14.7607 -0.541504 14.7607 -0.541504C14.7607 -0.541504 14.7607 -0.541504 14.7607 -0.541504C14.7607 -0.541504 14.7607 -0.541504 14.7607 -0.541504C14.7607 -0.541504 14.7607 -0.541504 14.7607 -0.541504C14.7607 -0.541504 14.7607 -0.541504 14.7607 -0.541504C14.7607 -0.541504 14.7607 -0.541504 14.7607 -0.541504C14.7607 -0.541504 14.7607 -0.541504 14.7607 -0.541504C14.7606 -0.541504 14.7606 -0.541504 14.7606 -0.541504C14.7606 -0.541504 14.7606 -0.541504 14.7606 -0.541504C14.7606 -0.541504 14.7606 -0.541504 14.7606 -0.541504C14.7606 -0.541504 14.7606 -0.541504 14.7606 -0.541504C14.7606 -0.541504 14.7606 -0.541504 14.7606 -0.541504C14.7606 -0.541504 14.7606 -0.541504 14.7606 -0.541504C14.7606 -0.541504 14.7606 -0.541504 14.7606 -0.541504C14.7606 -0.541504 14.7606 -0.541504 14.7606 -0.541504C14.7606 -0.541504 14.7606 -0.541504 14.7606 -0.541504C14.7606 -0.541504 14.7606 -0.541504 14.7606 -0.541504C14.7606 -0.541504 14.7606 -0.541504 14.7606 -0.541504C14.7606 -0.541504 14.7606 -0.541504 14.7606 -0.541504C14.7606 -0.541504 14.7606 -0.541504 14.7606 -0.541504C14.7606 -0.541504 14.7606 -0.541504 14.7606 -0.541504C14.7606 -0.541504 14.7605 -0.541504 14.7605 -0.541504C14.7605 -0.541504 14.7605 -0.541504 14.7605 -0.541504C14.7605 -0.541504 14.7605 -0.541504 14.7605 -0.541504C14.7605 -0.541504 14.7605 -0.541504 14.7605 -0.541504C14.7605 -0.541504 14.7605 -0.541504 14.7605 -0.541504C14.7605 -0.541504 14.7605 -0.541504 14.7605 -0.541504C14.7605 -0.541504 14.7605 -0.541504 14.7605 -0.541504C14.7605 -0.541504 14.7605 -0.541504 14.7605 -0.541504C14.7605 -0.541504 14.7605 -0.541504 14.7605 -0.541504C14.7605 -0.541504 14.7605 -0.541504 14.7605 -0.541504C14.7605 -0.541504 14.7605 -0.541504 14.7605 -0.541504C14.7605 -0.541504 14.7605 -0.541504 14.7605 -0.541504C14.7605 -0.541504 14.7605 -0.541504 14.7605 -0.541504C14.7605 -0.541504 14.7605 -0.541504 14.7605 -0.541504C14.7605 -0.541504 14.7605 -0.541504 14.7605 -0.541504C14.7605 -0.541504 14.7605 -0.541504 14.7605 -0.541504C14.7605 -0.541504 14.7605 -0.541504 14.7605 -0.541504C14.7605 -0.541504 14.7605 -0.541504 14.7604 -0.541504C14.7604 -0.541504 14.7604 -0.541504 14.7604 -0.541504C14.7604 -0.541504 14.7604 -0.541504 14.7604 -0.541504C14.7604 -0.541504 14.7604 -0.541504 14.7604 -0.541504C14.7604 -0.541504 14.7604 -0.541504 14.7604 -0.541504C14.7604 -0.541504 14.7604 -0.541504 14.7604 -0.541504C14.7604 -0.541504 14.7604 -0.541504 14.7604 -0.541504C14.7604 -0.541504 14.7604 -0.541504 14.7604 -0.541504C14.7604 -0.541504 14.7604 -0.541504 14.7604 -0.541504C14.7604 -0.541504 14.7604 -0.541504 14.7604 -0.541504C14.7604 -0.541504 14.7604 -0.541504 14.7604 -0.541504C14.7604 -0.541504 14.7604 -0.541504 14.7604 -0.541504C14.7604 -0.541504 14.7604 -0.541504 14.7604 -0.541504C14.7604 -0.541504 14.7604 -0.541504 14.7604 -0.541504C14.7604 -0.541504 14.7604 -0.541504 14.7604 -0.541504C14.7604 -0.541504 14.7604 -0.541504 14.7604 -0.541504C14.7604 -0.541504 14.7604 -0.541504 14.7604 -0.541504C14.7604 -0.541504 14.7604 -0.541504 14.7604 -0.541504C14.7604 -0.541504 14.7604 -0.541504 14.7604 -0.541504C14.7604 -0.541504 14.7604 -0.541504 14.7604 -0.541504C14.7604 -0.541504 14.7604 -0.541504 14.7604 -0.541504C14.7604 -0.541504 14.7604 -0.541504 14.7604 -0.541504C14.7604 -0.541504 14.7604 -0.541504 14.7604 -0.541504C14.7604 -0.541504 14.7604 -0.541504 14.7604 -0.541504C14.7604 -0.541504 14.7603 -0.541504 14.7603 -0.541504C14.7603 -0.541504 14.7603 -0.541504 14.7603 -0.541504C14.7603 -0.541504 14.7603 -0.541504 14.7603 -0.541504C14.7603 -0.541504 14.7603 -0.541504 14.7603 -0.541504C14.7603 -0.541504 14.7603 -0.541504 14.7603 -0.541504C14.7603 -0.541504 14.7603 -0.541504 14.7603 -0.541504C14.7603 -0.541504 14.7603 -0.541504 14.7603 -0.541504C14.7603 -0.541504 14.7603 -0.541504 14.7603 -0.541504C14.7603 -0.541504 14.7603 -0.541504 14.7603 -0.541504C14.7603 -0.541504 14.7603 -0.541504 14.7603 -0.541504C14.7603 -0.541504 14.7603 -0.541504 14.7603 -0.541504C14.7603 -0.541504 14.7603 -0.541504 14.7603 -0.541504C14.7603 -0.541504 14.7603 -0.541504 14.7603 -0.541504C14.7603 -0.541504 14.7603 -0.541504 14.7603 -0.541504C14.7603 -0.541504 14.7603 -0.541504 14.7603 -0.541504C14.7603 -0.541504 14.7603 -0.541504 14.7603 -0.541504C14.7603 -0.541504 14.7603 -0.541504 14.7603 -0.541504C14.7603 -0.541504 14.7603 -0.541504 14.7603 -0.541504C14.7603 -0.541504 14.7603 -0.541504 14.7603 -0.541504C14.7603 -0.541504 14.7603 -0.541504 14.7603 -0.541504C14.7603 -0.541504 14.7603 -0.541504 14.7603 -0.541504C14.7603 -0.541504 14.7603 -0.541504 14.7603 -0.541504C14.7603 -0.541504 14.7603 -0.541504 14.7603 -0.541504C14.7603 -0.541504 14.7603 -0.541504 14.7603 -0.541504C14.7603 -0.541504 14.7603 -0.541504 14.7603 -0.541504C14.7603 -0.541504 14.7603 -0.541504 14.7603 -0.541504C14.7603 -0.541504 14.7603 -0.541504 14.7603 -0.541504C14.7603 -0.541504 14.7603 -0.541504 14.7603 -0.541504C14.7603 -0.541504 14.7603 -0.541504 14.7603 -0.541504C14.7603 -0.541504 14.7603 -0.541504 14.7603 -0.541504C14.7603 -0.541504 14.7603 -0.541504 14.7603 -0.541504C14.7603 -0.541504 14.7603 -0.541504 14.7603 -0.541504C14.7603 -0.541504 14.7603 -0.541504 14.7603 -0.541504C14.7603 -0.541504 14.7603 -0.541504 14.7603 -0.541504C14.7603 -0.541504 14.7603 -0.541504 14.7603 -0.541504C14.7603 -0.541504 14.7603 -0.541504 14.7603 -0.541504H14.7603C14.7603 -0.541504 14.7603 -0.541504 14.7603 -0.541504C14.7603 -0.541504 14.7603 -0.541504 14.7603 -0.541504H14.7603C14.7603 -0.541504 14.7603 -0.541504 14.7603 -0.541504H14.7603C14.7603 -0.541504 14.7603 -0.541504 14.7603 -0.541504H14.7602C14.7602 -0.541504 14.7602 -0.541504 14.7602 -0.541504H14.7602C14.7602 -0.541504 14.7602 -0.541504 14.7602 -0.541504C14.7602 -0.541504 14.7602 -0.541504 14.7602 -0.541504H14.7602H14.7602C14.7602 -0.541504 14.7602 -0.541504 14.7602 -0.541504C14.7602 -0.541504 14.7602 -0.541504 14.7602 -0.541504C14.7602 -0.541504 14.7602 -0.541504 14.7602 -0.541504C14.7602 -0.541504 14.7602 -0.541504 14.7602 -0.541504C14.7602 -0.541504 14.7602 -0.541504 14.7602 -0.541504C14.7602 -0.541504 14.7602 -0.541504 14.7602 -0.541504C14.7602 -0.541504 14.7602 -0.541504 14.7602 -0.541504C14.7602 -0.541504 14.7602 -0.541504 14.7602 -0.541504C14.7602 -0.541504 14.7602 -0.541504 14.7602 -0.541504C14.7602 -0.541504 14.7602 -0.541504 14.7602 -0.541504H14.7602H14.7602C14.7602 -0.541504 14.7602 -0.541504 14.7602 -0.541504C14.7602 -0.541504 14.7602 -0.541504 14.7602 -0.541504C14.7602 -0.541504 14.7602 -0.541504 14.7602 -0.541504C14.7602 -0.541504 14.7602 -0.541504 14.7602 -0.541504C14.7602 -0.541504 14.7602 -0.541504 14.7602 -0.541504C14.7602 -0.541504 14.7602 -0.541504 14.7602 -0.541504C14.7602 -0.541504 14.7602 -0.541504 14.7602 -0.541504C14.7602 -0.541504 14.7602 -0.541504 14.7602 -0.541504C14.7602 -0.541504 14.7602 -0.541504 14.7602 -0.541504C14.7602 -0.541504 14.7602 -0.541504 14.7602 -0.541504H14.7602H14.7602C14.7602 -0.541504 14.7602 -0.541504 14.7602 -0.541504C14.7602 -0.541504 14.7602 -0.541504 14.7602 1.4585ZM14.7719 1.4585V3.4585C18.4296 3.4585 22.4098 5.58197 23.4496 10.172L25.4002 9.73016L27.3508 9.2883C25.8006 2.44502 19.8175 -0.541504 14.7719 -0.541504V1.4585ZM25.4002 9.73016L23.4496 10.1717C24.6285 15.3802 21.5154 19.9643 18.1915 23.1643L19.5785 24.6052L20.9656 26.046C24.525 22.6194 29.0186 16.6568 27.3509 9.28864L25.4002 9.73016ZM19.5785 24.6052L18.1958 23.1601C17.2229 24.0912 15.9831 24.5535 14.7602 24.5535V26.5535V28.5535C16.9907 28.5535 19.2276 27.7092 20.9613 26.0502L19.5785 24.6052ZM14.7602 3.2085V1.2085C10.7685 1.2085 5.32474 3.37073 3.89653 9.66064L5.84688 10.1035L7.79724 10.5464C8.67902 6.66293 11.9619 5.2085 14.7602 5.2085V3.2085ZM5.84688 10.1035L3.89747 9.6565C2.38469 16.2539 6.56116 21.6878 9.7826 24.777L11.1669 23.3335L12.5512 21.89C9.51927 18.9825 6.78907 14.9431 7.79629 10.5505L5.84688 10.1035ZM11.1669 23.3335L9.77784 24.7724C12.5711 27.4688 16.961 27.4688 19.7543 24.7724L18.3652 23.3335L16.9762 21.8945C15.7328 23.0948 13.7993 23.0948 12.5559 21.8945L11.1669 23.3335ZM18.3652 23.3335L19.7522 24.7744C22.9607 21.6861 27.1316 16.2563 25.6481 9.66437L23.6969 10.1035L21.7457 10.5426C22.7355 14.9407 19.9998 18.9842 16.9782 21.8926L18.3652 23.3335ZM23.6969 10.1035L25.6463 9.65639C24.2041 3.36862 18.7501 1.2085 14.7602 1.2085V3.2085V5.2085C17.5604 5.2085 20.8563 6.66503 21.7475 10.5506L23.6969 10.1035Z" fill="white" mask="url(#path-2-inside-1_274_8272)"/>
</svg>
