<svg width="17" height="17" viewBox="0 0 17 17" fill="none" xmlns="http://www.w3.org/2000/svg">
<path d="M1.03172 8.72335C0.744181 8.62359 0.74418 8.16547 1.03172 8.06571C2.31443 7.62067 4.4785 6.7447 5.6571 5.5661C6.8357 4.38751 7.71166 2.22344 8.1567 0.940726C8.25646 0.653187 8.71459 0.653187 8.81435 0.940726C9.25939 2.22344 10.1354 4.38751 11.314 5.5661C12.4926 6.7447 14.6566 7.62067 15.9393 8.06571C16.2269 8.16547 16.2269 8.62359 15.9393 8.72335C14.6566 9.1684 12.4926 10.0444 11.314 11.223C10.1354 12.4016 9.25939 14.5656 8.81435 15.8483C8.71459 16.1359 8.25646 16.1359 8.1567 15.8483C7.71166 14.5656 6.8357 12.4016 5.6571 11.223C4.4785 10.0444 2.31443 9.1684 1.03172 8.72335Z" fill="#0057A6" fill-opacity="0.4"/>
</svg>
