<svg width="31" height="30" viewBox="0 0 31 30" fill="none" xmlns="http://www.w3.org/2000/svg">
<path fill-rule="evenodd" clip-rule="evenodd" d="M30.7881 4.12269C31.7561 1.67702 29.2394 -0.70776 26.6471 0.195412L2.10147 8.75024C-0.480008 9.65341 -0.748817 13.0022 1.66056 14.2707L10.2117 18.7663C10.4053 18.8678 10.5665 19.0201 10.6633 19.2027L15.3639 28.2953C16.6116 30.6902 20.2903 30.5278 21.2906 28.0213L30.7881 4.12269ZM28.7015 3.57478L12.5995 18.3299L17.3001 27.4023C17.7088 28.204 18.9456 28.1431 19.2683 27.311L28.7015 3.57478ZM11.0722 16.889L2.70388 12.4948C1.89717 12.0787 1.99386 10.9625 2.85435 10.6581L27.1311 2.18451L11.0722 16.889Z" fill="#838281" fill-opacity="0.6"/>
</svg>
